<?xml version="1.0" encoding="UTF-8"?>
<svg width="246px" height="18px" viewBox="0 0 246 18" version="1.1" xmlns="http://www.w3.org/2000/svg" xmlns:xlink="http://www.w3.org/1999/xlink">
    <!-- Generator: Sketch 43 (38999) - http://www.bohemiancoding.com/sketch -->
    <title>Group 5</title>
    <desc>Created with Sketch.</desc>
    <defs>
        <rect id="path-1" x="0" y="0" width="246" height="18"></rect>
    </defs>
    <g id="Page-1" stroke="none" stroke-width="1" fill="none" fill-rule="evenodd">
        <g id="广场竞品客流分析" transform="translate(-1341.000000, -311.000000)">
            <g id="排行" transform="translate(1255.000000, 234.000000)">
                <g id="Group-7" transform="translate(0.000000, 70.000000)">
                    <g id="Group-5" transform="translate(86.000000, 7.000000)">
                        <mask id="mask-2" fill="white">
                            <use xlink:href="#path-1"></use>
                        </mask>
                        <!-- <rect stroke="#272727" stroke-width="1.8" x="0.9" y="0.9" width="244.2" height="16.2"></rect> -->
                        <g mask="url(#mask-2)" fill="#7fb80e">
                            <g transform="translate(-18.000000, -11.000000)">
                                <polygon id="Rectangle-4" points="19.5 0 23.5 0 4 43 0 43"></polygon>
                                <polygon id="Rectangle-4-Copy" points="36.2391304 0 40.2391304 0 20.7391304 43 16.7391304 43"></polygon>
                                <polygon id="Rectangle-4" points="27.8695652 0 31.8695652 0 12.3695652 43 8.36956522 43"></polygon>
                                <polygon id="Rectangle-4-Copy-2" points="52.9782609 0 56.9782609 0 37.4782609 43 33.4782609 43"></polygon>
                                <polygon id="Rectangle-4" points="44.6086957 0 48.6086957 0 29.1086957 43 25.1086957 43"></polygon>

                            </g>
                        </g>
                    </g>
                </g>
            </g>
        </g>
    </g>
</svg>