<?xml version="1.0" encoding="UTF-8"?>
<svg width="246px" height="18px" viewBox="0 0 246 18" version="1.1" xmlns="http://www.w3.org/2000/svg" xmlns:xlink="http://www.w3.org/1999/xlink">
    <!-- Generator: Sketch 43 (38999) - http://www.bohemiancoding.com/sketch -->
    <title>Group 5</title>
    <desc>Created with Sketch.</desc>
    <defs>
        <rect id="path-1" x="0" y="0" width="246" height="18"></rect>
    </defs>
    <g id="Page-1" stroke="none" stroke-width="1" fill="none" fill-rule="evenodd">
        <g id="广场竞品客流分析" transform="translate(-1341.000000, -311.000000)">
            <g id="排行" transform="translate(1255.000000, 234.000000)">
                <g id="Group-7" transform="translate(0.000000, 70.000000)">
                    <g id="Group-5" transform="translate(86.000000, 7.000000)">
                        <mask id="mask-2" fill="white">
                            <use xlink:href="#path-1"></use>
                        </mask>
                        <rect stroke="#272727" stroke-width="1.8" x="0.9" y="0.9" width="244.2" height="16.2"></rect>
                        <g mask="url(#mask-2)" fill="#FDB933">
                            <g transform="translate(-18.000000, -11.000000)">
                                <polygon id="Rectangle-4" points="19.5 0 23.5 0 4 43 0 43"></polygon>
                                <polygon id="Rectangle-4-Copy" points="36.2391304 0 40.2391304 0 20.7391304 43 16.7391304 43"></polygon>
                                <polygon id="Rectangle-4" points="27.8695652 0 31.8695652 0 12.3695652 43 8.36956522 43"></polygon>
                                <polygon id="Rectangle-4-Copy-2" points="52.9782609 0 56.9782609 0 37.4782609 43 33.4782609 43"></polygon>
                                <polygon id="Rectangle-4" points="44.6086957 0 48.6086957 0 29.1086957 43 25.1086957 43"></polygon>
                                <polygon id="Rectangle-4-Copy-3" points="69.7173913 0 73.7173913 0 54.2173913 43 50.2173913 43"></polygon>
                                <polygon id="Rectangle-4" points="61.3478261 0 65.3478261 0 45.8478261 43 41.8478261 43"></polygon>
                                <polygon id="Rectangle-4-Copy-4" points="86.4565217 0 90.4565217 0 70.9565217 43 66.9565217 43"></polygon>
                                <polygon id="Rectangle-4" points="78.0869565 0 82.0869565 0 62.5869565 43 58.5869565 43"></polygon>
                                <polygon id="Rectangle-4-Copy-5" points="103.195652 0 107.195652 0 87.6956522 43 83.6956522 43"></polygon>
                                <polygon id="Rectangle-4" points="94.826087 0 98.826087 0 79.326087 43 75.326087 43"></polygon>
                                <polygon id="Rectangle-4-Copy-6" points="119.934783 0 123.934783 0 104.434783 43 100.434783 43"></polygon>
                                <polygon id="Rectangle-4" points="111.565217 0 115.565217 0 96.0652174 43 92.0652174 43"></polygon>
                                <polygon id="Rectangle-4-Copy-7" points="136.673913 0 140.673913 0 121.173913 43 117.173913 43"></polygon>
                                <polygon id="Rectangle-4" points="128.304348 0 132.304348 0 112.804348 43 108.804348 43"></polygon>
                                <polygon id="Rectangle-4-Copy-8" points="153.413043 0 157.413043 0 137.913043 43 133.913043 43"></polygon>
                                <polygon id="Rectangle-4" points="145.043478 0 149.043478 0 129.543478 43 125.543478 43"></polygon>
                                <polygon id="Rectangle-4-Copy-9" points="170.152174 0 174.152174 0 154.652174 43 150.652174 43"></polygon>
                                <polygon id="Rectangle-4" points="161.782609 0 165.782609 0 146.282609 43 142.282609 43"></polygon>
                                <polygon id="Rectangle-4-Copy-10" points="186.891304 0 190.891304 0 171.391304 43 167.391304 43"></polygon>
                                <polygon id="Rectangle-4" points="178.521739 0 182.521739 0 163.021739 43 159.021739 43"></polygon>
                                <polygon id="Rectangle-4-Copy-11" points="203.630435 0 207.630435 0 188.130435 43 184.130435 43"></polygon>
                                <polygon id="Rectangle-4" points="195.26087 0 199.26087 0 179.76087 43 175.76087 43"></polygon>
                                <polygon id="Rectangle-4-Copy-12" points="220.369565 0 224.369565 0 204.869565 43 200.869565 43"></polygon>
                                <polygon id="Rectangle-4" points="212 0 216 0 196.5 43 192.5 43"></polygon>
                                <polygon id="Rectangle-4-Copy-13" points="237.108696 0 241.108696 0 221.608696 43 217.608696 43"></polygon>
                                <polygon id="Rectangle-4" points="228.73913 0 232.73913 0 213.23913 43 209.23913 43"></polygon>
                                <polygon id="Rectangle-4-Copy-14" points="253.847826 0 257.847826 0 238.347826 43 234.347826 43"></polygon>
                                <polygon id="Rectangle-4" points="245.478261 0 249.478261 0 229.978261 43 225.978261 43"></polygon>
                                <polygon id="Rectangle-4-Copy-15" points="270.586957 0 274.586957 0 255.086957 43 251.086957 43"></polygon>
                                <polygon id="Rectangle-4" points="262.217391 0 266.217391 0 246.717391 43 242.717391 43"></polygon>
                                <polygon id="Rectangle-4" points="278.956522 0 282.956522 0 263.456522 43 259.456522 43"></polygon>
                            </g>
                        </g>
                    </g>
                </g>
            </g>
        </g>
    </g>
</svg>