<?xml version="1.0" encoding="UTF-8"?>
<svg width="23px" height="23px" viewBox="0 0 23 23" version="1.1" xmlns="http://www.w3.org/2000/svg" xmlns:xlink="http://www.w3.org/1999/xlink">
    <!-- Generator: Sketch 43 (38999) - http://www.bohemiancoding.com/sketch -->
    <title>金币</title>
    <desc>Created with Sketch.</desc>
    <defs></defs>
    <g id="Page-1" stroke="none" stroke-width="1" fill="none" fill-rule="evenodd">
        <g id="车牌分析" transform="translate(-1161.000000, -500.000000)" fill-rule="nonzero" fill="#FFCC11">
            <g id="上海" transform="translate(396.000000, 254.000000)">
                <g id="单次停车" transform="translate(746.000000, 210.000000)">
                    <g id="金币" transform="translate(19.000000, 36.000000)">
                        <path d="M15.8665893,9.23876813 C12.1013803,9.23876813 9.0518904,12.2369152 9.0518904,15.9339109 C9.0518904,19.6309066 12.1035758,22.6290536 15.8665893,22.6290536 C19.6296027,22.6290536 22.6812881,19.6309066 22.6812881,15.9339109 C22.6812881,12.2369152 19.6296027,9.23876813 15.8665893,9.23876813 Z M18.9797474,18.0282999 C18.8787564,18.6775389 18.5121151,20.0946487 16.5230309,20.2348499 L16.5230309,21.4772475 L15.1179384,21.4772475 L15.1179384,20.2456346 C14.2792738,20.1291598 13.5064729,19.9156227 12.7095219,19.6546329 L13.1310497,18.0347707 C13.7611459,18.276348 14.5910287,18.5351809 15.3221159,18.6171446 C16.3144625,18.7314625 16.9818815,18.530867 17.0455497,17.8233906 C17.186059,16.5853068 12.7687993,16.3674559 12.810513,14.1350226 C12.7490402,12.495748 13.9609325,11.7796438 15.1684339,11.6825815 L15.1684339,10.3927312 L16.571331,10.3927312 L16.571331,11.6243441 C17.3682819,11.6351288 18.0005736,11.8033702 18.6153016,12.0665169 L18.2267057,13.5936306 C17.6097822,13.364995 16.9774906,13.1514579 16.2222533,13.1514579 C15.7326664,13.1514579 14.7051925,13.1536148 14.6700651,13.8157955 C14.6700651,14.9568169 16.6152401,15.0172112 17.2585091,15.2868288 C17.7283369,15.4831103 18.0576555,15.675078 18.3913649,15.9964621 C18.977552,16.5572666 19.0983021,17.2798416 18.9797474,18.0282999 L18.9797474,18.0282999 Z M8.72915821,0.846113361 C4.0923528,0.846113361 0.335925691,2.67735569 0.335925691,4.9356722 C0.335925691,7.19398871 4.0923528,9.02523104 8.72915821,9.02523104 C13.3637682,9.02523104 17.1201953,7.19398871 17.1201953,4.9356722 C17.1201953,2.67735569 13.3637682,0.846113361 8.72915821,0.846113361 Z M12.5624263,6.21473781 C12.4372853,6.61161482 11.9850211,7.47654789 9.53708642,7.5628255 L9.53708642,8.32206849 L7.80926168,8.32206849 L7.80926168,7.56929632 C6.77739684,7.49811729 5.82456846,7.36870087 4.84539459,7.20693035 L5.36352247,6.21689475 C6.13851882,6.36356669 7.16160184,6.52318027 8.06173925,6.5727899 C9.2824134,6.64181199 10.1057098,6.51886639 10.1825508,6.08747833 C10.3559919,5.33039228 4.91784467,5.19881892 4.96834019,3.83563264 C4.89369464,2.83481233 6.38441002,2.39695345 7.87073448,2.33655912 L7.87073448,1.5492759 L9.59855922,1.5492759 L9.59855922,2.30204807 C10.5799286,2.3085189 11.3571204,2.40989509 12.1145531,2.57166561 L11.6359434,3.50562077 C10.8763153,3.36541965 10.0991234,3.23600323 9.16605417,3.23600323 C8.56230347,3.23600323 7.29772018,3.23600323 7.25381103,3.64150801 C7.25381103,4.33819973 9.64685928,4.37486772 10.4416148,4.53879518 C11.0212154,4.65958384 11.4251795,4.77605862 11.8379255,4.97234018 C12.5580354,5.31529369 12.7073265,5.75746646 12.5624263,6.21473781 L12.5624263,6.21473781 Z M11.374684,10.075661 C10.5426058,10.2115482 9.65564111,10.2870411 8.72915821,10.2870411 C4.73562173,10.2870411 1.40072239,8.92601178 0.551080487,7.10555416 C0.414962147,7.3967411 0.335925691,7.70086968 0.335925691,8.01362603 C0.335925691,10.2719425 4.0923528,12.1031849 8.72915821,12.1031849 C8.95529029,12.1031849 9.174836,12.0945571 9.39657717,12.0859293 C9.91470505,11.2943322 10.5865149,10.6105822 11.374684,10.075661 L11.374684,10.075661 Z M16.8896723,8.94758119 C17.0345724,8.64776648 17.1201953,8.33501014 17.1201953,8.01146909 C17.1201953,7.69871274 17.0411588,7.3967411 16.9050405,7.10339722 C16.6042629,7.75047931 15.9829485,8.33932402 15.1333066,8.82894947 C15.2518613,8.82247865 15.370416,8.81169395 15.4911661,8.81169395 C15.9697757,8.81169395 16.4374081,8.86130357 16.8896723,8.94758119 Z M8.72915821,12.9767457 C4.73562173,12.9767457 1.40072239,11.6157164 0.551080487,9.79525873 C0.414962147,10.0864457 0.335925691,10.3905743 0.335925691,10.7033306 C0.335925691,12.8969389 3.88597983,14.6828855 8.33836684,14.7842617 C8.44374879,14.1479643 8.63475355,13.5418641 8.90040386,12.9745888 C8.84332198,12.9745888 8.78624009,12.9767457 8.72915821,12.9767457 Z M8.25274402,15.6578225 C4.47216688,15.5542894 1.36559507,14.2342419 0.551080487,12.4849633 C0.414962147,12.7761502 0.335925691,13.0802788 0.335925691,13.3930352 C0.335925691,15.5995851 3.92549806,17.3941595 8.41301239,17.4739663 C8.30104407,16.97787 8.23737582,16.4623612 8.23737582,15.9339109 C8.23957127,15.8411624 8.2483531,15.7505709 8.25274402,15.6578225 L8.25274402,15.6578225 Z M0.551080487,15.1768248 C0.414962147,15.4680118 0.335925691,15.7721403 0.335925691,16.0848967 C0.335925691,18.3432132 4.0923528,20.1744555 8.72915821,20.1744555 C9.04091312,20.1744555 9.34827711,20.1636708 9.65125019,20.1485722 C9.24509063,19.6050233 8.92016298,19.0032369 8.68305361,18.3583118 C4.70927625,18.3475271 1.39633147,16.9908116 0.551080487,15.1768248 Z M10.380142,20.9682096 C9.84664588,21.0199761 9.29558614,21.0501733 8.72915821,21.0501733 C4.73562173,21.0501733 1.40072239,19.689144 0.551080487,17.8686863 C0.414962147,18.1598733 0.335925691,18.4640019 0.335925691,18.7767582 C0.335925691,21.0350747 4.0923528,22.866317 8.72915821,22.866317 C10.0947325,22.866317 11.3812704,22.7045465 12.5229081,22.4219873 C11.7171753,22.0660922 10.9948699,21.5721529 10.380142,20.9682096 L10.380142,20.9682096 Z" id="Shape"></path>
                    </g>
                </g>
            </g>
        </g>
    </g>
</svg>