<?xml version="1.0" encoding="UTF-8"?>
<svg width="1081px" height="86px" viewBox="0 0 1081 86" version="1.1" xmlns="http://www.w3.org/2000/svg" xmlns:xlink="http://www.w3.org/1999/xlink">
    <!-- Generator: Sketch 43 (38999) - http://www.bohemiancoding.com/sketch -->
    <title>边框</title>
    <desc>Created with Sketch.</desc>
    <defs></defs>
    <g id="Page-1" stroke="none" stroke-width="1" fill="none" fill-rule="evenodd">
        <g id="超大屏" transform="translate(-2159.000000, -92.000000)">
            <g id="边框" transform="translate(2772.000000, 129.500000) scale(-1, 1) translate(-2772.000000, -129.500000) translate(2160.000000, 82.000000)">
                <g opacity="0.699898098" stroke-width="1" transform="translate(0.000000, 12.000000)">
                    <polyline id="Line" stroke="#108EE9" stroke-linecap="square" points="0 40.5 196 40.5 244.5 0 809 0 845.5 40.5 1183 40.5 1218 78"></polyline>
                    <circle id="Oval-7" stroke="#108EE9" cx="195.319281" cy="39.3192815" r="17"></circle>
                    <circle id="Oval-7" fill="#108EE9" cx="195" cy="39" r="5.68071852"></circle>
                    <circle id="Oval-7" stroke="#108EE9" cx="1215" cy="74" r="8.84035926"></circle>
                    <circle id="Oval-7" fill="#108EE9" cx="1215" cy="74" r="5.68071852"></circle>
                    <circle id="Oval-7" fill="#108EE9" cx="895" cy="40" r="5.68071852"></circle>
                    <circle id="Oval-7" fill="#108EE9" cx="925" cy="40" r="5.68071852"></circle>
                    <circle id="Oval-7" fill="#108EE9" cx="955" cy="40" r="5.68071852"></circle>
                    <circle id="Oval-7" fill="#108EE9" cx="985" cy="40" r="5.68071852"></circle>
                    <path d="M246.5,23.5 L611.636961,23.5" id="Line" stroke="#108EE9" stroke-linecap="square"></path>
                    <path d="M225.5,33.5 L590.636961,33.5" id="Line" stroke="#108EE9" stroke-linecap="square"></path>
                </g>
                <rect id="Rectangle" fill="#108EE9" opacity="0.595391757" x="42" y="51" width="94" height="4"></rect>
                <rect id="Rectangle-Copy-2" fill="#108EE9" opacity="0.595391757" x="1114" y="51" width="70" height="4"></rect>
                <rect id="Rectangle-Copy" fill="#108EE9" opacity="0.595391757" x="257" y="10" width="210" height="4"></rect>
            </g>
        </g>
    </g>
</svg>