<?xml version="1.0" encoding="UTF-8"?>
<svg width="315px" height="37px" viewBox="0 0 315 37" version="1.1" xmlns="http://www.w3.org/2000/svg" xmlns:xlink="http://www.w3.org/1999/xlink">
    <!-- Generator: Sketch 43 (38999) - http://www.bohemiancoding.com/sketch -->
    <title>Group</title>
    <desc>Created with Sketch.</desc>
    <defs></defs>
    <g id="网络科技的LOGO" stroke="none" stroke-width="1" fill="none" fill-rule="evenodd">
        <g id="商圈-品牌标签"  fill="#FFFFFF">
            <g id="Group">
                <path d="M34.5644146,2.32541509 L34.5644146,1.58192453 L35.0558551,1.58192453 C35.3103889,1.58192453 35.5797293,1.63498113 35.5797293,1.93237736 C35.5797293,2.30237736 35.3054533,2.32541509 34.9973335,2.32541509 L34.5644146,2.32541509 L34.5644146,2.32541509 Z M34.5644146,2.63328302 L34.9811167,2.63328302 L35.6114579,3.67486792 L36.0182889,3.67486792 L35.3385921,2.61862264 C35.6904268,2.57324528 35.9597672,2.38545283 35.9597672,1.95541509 C35.9597672,1.48139623 35.6791455,1.27196226 35.1122615,1.27196226 L34.2005935,1.27196226 L34.2005935,3.67486792 L34.5644146,3.67486792 L34.5644146,2.63328302 L34.5644146,2.63328302 Z M35.0029742,4.55588679 C36.1332168,4.55588679 37.1012912,3.67486792 37.1012912,2.46713208 C37.1012912,1.27126415 36.1332168,0.390943396 35.0029742,0.390943396 C33.8607451,0.390943396 32.894786,1.27126415 32.894786,2.46713208 C32.894786,3.67416981 33.8607451,4.55588679 35.0029742,4.55588679 L35.0029742,4.55588679 Z M33.3121932,2.46713208 C33.3121932,3.47241509 34.0525268,4.20962264 35.0029742,4.20962264 C35.9421403,4.20962264 36.683179,3.47241509 36.683179,2.46713208 C36.683179,1.48139623 35.9421403,0.737207547 35.0029742,0.737207547 C34.0525268,0.736509434 33.3121932,1.48139623 33.3121932,2.46713208 L33.3121932,2.46713208 Z M28.0748615,22.7110189 C25.2185839,23.8266038 22.386984,23.982283 20.3612901,23.3463019 C22.1937922,21.0585849 22.9298953,18.197717 23.2577573,16.2213585 C23.5426095,14.5703208 23.6652934,12.7726792 23.5094708,10.8996415 C23.1766732,6.73539623 19.678068,6.42962264 18.4695614,6.23764151 C17.2666956,6.03658491 14.3349744,6.01633962 14.3349744,6.01633962 C14.3349744,6.01633962 16.1315173,13.1084717 16.5348229,23.3700377 C14.5098341,23.9766981 11.7177187,23.8098491 8.91432202,22.711717 C6.48884802,21.7755472 4.55128914,20.3506981 3.37662645,18.8302075 L3.35970453,18.6794151 C3.16580763,10.3921132 9.80272238,3.52477358 18.1741331,3.34256604 C26.5335574,3.15686792 33.4715412,9.73658491 33.6576822,18.0120189 C33.6640279,18.2800943 33.6330044,18.5328113 33.6330044,18.8008868 C32.4498807,20.3339434 30.5059761,21.7671698 28.0748615,22.7110189 L28.0748615,22.7110189 Z M17.4930261,9.60883019 C17.4930261,9.60883019 18.6578177,15.5057925 18.6726244,20.9301321 C19.1013128,20.9203585 19.6505699,20.8868491 20.0376586,19.8285094 C20.5432007,18.5188491 20.9740044,16.1829623 21.0297056,13.776566 C21.1946943,8.80320755 17.4930261,9.60883019 17.4930261,9.60883019 L17.4930261,9.60883019 Z M18.8354978,33.343283 C13.428947,33.454283 8.62805968,30.7435094 5.8521611,26.5729811 C7.13822638,27.1531132 8.64498159,27.5489434 10.2694851,27.6766981 C13.6736097,27.9510566 16.7371807,27.0246604 18.4942392,25.4099245 C20.2414266,27.0246604 23.3007672,27.9510566 26.7126476,27.6766981 C28.3667645,27.5440566 29.8897365,27.1328679 31.1877882,26.5331887 C28.5507903,30.5396604 24.0319348,33.2266981 18.8354978,33.343283 L18.8354978,33.343283 Z M18.0972794,0.395132075 C7.97868132,0.61154717 -0.0557012924,8.92049057 0.179795311,18.9460943 C0.394844604,28.9619245 8.78106196,36.9085472 18.9102362,36.697717 C29.0323597,36.469434 37.0589864,28.1723585 36.8390016,18.1460566 C36.6112608,8.12324528 28.220813,0.173132075 18.0972794,0.395132075 Z" id="Logo"></path>
                <g id="Words" transform="translate(56.406372, 0.000000)">
                    <path d="M100.473145,21.7217925 L100.473145,18.8616226 C103.956239,18.8616226 107.064935,18.6019245 109.803464,18.086717 L109.803464,20.7576981 C106.695473,21.4006604 103.586777,21.7217925 100.473145,21.7217925 L100.473145,21.7217925 Z M100.69595,10.5554717 L100.69595,7.9654717 C102.249946,5.96677358 103.287823,3.65113208 103.804646,1.01016981 L107.472471,1.01016981 C106.804055,3.71745283 105.581447,6.03309434 103.804646,7.9654717 C104.548505,7.9654717 105.25006,7.93266038 105.91777,7.86633962 C105.988983,7.54520755 106.173714,7.06281132 106.471963,6.41984906 C106.618619,6.03239623 106.732842,5.74407547 106.80335,5.55069811 L110.357657,5.55069811 C109.319779,9.15575472 107.396322,12.1185472 104.580939,14.4341887 C106.286527,14.368566 107.879302,14.2408113 109.357854,14.0467358 L109.357854,16.717717 C106.988786,17.1666038 104.249552,17.3934906 101.140856,17.3934906 L101.140856,14.4341887 C102.694851,12.8892642 103.842016,11.6801321 104.580939,10.4563396 C103.771508,10.5226604 102.472751,10.5554717 100.69595,10.5554717 L100.69595,10.5554717 Z M115.314367,19.8536415 L119.754253,19.8536415 C120.794246,19.8536415 121.199666,19.4689811 121.199666,18.5020943 L121.199666,16.0370566 L115.314367,16.0370566 L115.314367,19.8536415 L115.314367,19.8536415 Z M111.31445,21.9793962 L111.31445,13.622283 L125.08536,13.622283 L125.08536,18.7939057 C125.08536,20.9161698 123.829614,21.9786981 121.308954,21.9786981 L111.31445,21.9786981 L111.31445,21.9793962 Z M115.982077,4.69271698 L115.422949,5.33288679 C116.31417,6.33607547 117.237824,7.04326415 118.199553,7.79373585 C118.965269,7.19266038 119.763419,6.79543396 120.387415,6.04356604 C121.05301,5.13741509 120.708931,4.74088679 119.673874,4.69271698 L115.982077,4.69271698 L115.982077,4.69271698 Z M110.091842,13.6844151 C113.427573,13.1831698 116.166808,12.2616604 118.313775,11.2584717 C120.384594,12.197434 123.09069,13.122434 126.421486,13.6844151 L126.421486,11.3687736 C124.42188,10.8033019 122.682449,10.1770943 121.199666,9.48735849 C122.905959,8.23564151 124.000948,7.21918868 125.185482,5.27703774 C125.738969,4.33458491 125.024019,2.35683019 122.815004,2.3414717 L117.42326,2.3414717 C117.574852,1.96449057 117.684139,1.68315094 117.759583,1.49466038 C117.830796,1.24613208 117.906239,1.05764151 117.982388,0.929188679 L113.868953,0.929188679 C113.13003,3.18828302 111.982865,4.88120755 110.42887,6.00866038 L110.42887,8.49533962 C111.243942,8.24681132 111.982865,7.4209434 112.651281,7.04396226 C113.461417,7.98292453 114.390712,8.82903774 115.423654,9.58369811 C114.167907,10.2099057 112.391106,10.8033019 110.092547,11.3687736 L110.092547,13.6844151 L110.091842,13.6844151 Z" id="Shape"></path>
                    <path d="M0.219984851,2.11109434 L0.219984851,3.81169811 L7.4110922,3.81169811 L7.4110922,8.73618868 C7.4110922,17.4549245 0.74667935,18.234717 0.74667935,18.234717 L0.743153951,21.6750189 C0.743153951,21.6750189 10.2652546,21.1633019 11.37505,10.6210943 L20.3112295,10.6210943 L20.3112295,18.6270566 L15.420092,18.6270566 L15.420092,20.7800377 C15.420092,20.7800377 15.3904786,21.6275472 16.297211,21.6275472 L22.1761652,21.6275472 C24.4916467,21.6275472 24.3894102,19.8836604 24.3894102,19.8836604 L24.3894102,8.89884906 C24.3894102,8.89884906 24.414088,7.622 22.8191978,7.622 L11.4864526,7.622 L11.4864526,3.81309434 L26.601245,3.81309434 L26.601245,2.10830189 C26.601245,2.10830189 26.697841,1.33409434 25.8489251,1.33409434 L1.03787725,1.33409434 C0.178385152,1.33269811 0.219984851,2.11109434 0.219984851,2.11109434 Z" id="Shape"></path>
                    <path d="M53.2645371,0.26109434 L49.191292,0.26109434 L49.191292,4.62709434 L42.2328609,4.62709434 L42.2328609,7.10818868 L49.17437,7.10818868 C48.8140743,12.4187358 43.0676752,13.9929811 42.2328609,13.9929811 L42.2328609,16.921566 C42.9428761,17.0046415 48.438972,16.545283 51.2134604,12.055717 C53.9957047,16.5564528 59.5115428,17.0046415 60.2180326,16.921566 L60.2180326,13.9929811 C59.3867437,13.9929811 53.6396395,12.5262453 53.2821641,7.10818868 L60.2180326,7.10818868 L60.2180326,4.62709434 L53.2645371,4.62709434 L53.2645371,0.26109434 L53.2645371,0.26109434 Z M60.2187377,19.0885094 L60.2187377,21.0180943 C60.2187377,21.0180943 60.3005269,21.9005094 59.1928468,21.9005094 C55.7633394,21.904 44.8973569,21.9228491 43.9130657,21.9005094 C41.2147259,21.8481509 39.5789411,20.4414528 38.7772655,18.7415472 C36.7445209,21.5305094 33.86004,21.5605283 33.86004,21.5605283 L33.8656807,18.1076604 C33.8656807,18.1076604 36.8256051,17.4256038 36.8256051,13.4254151 L36.8256051,9.27583019 L33.86004,9.27583019 L33.86004,6.79613208 L39.5521481,6.79613208 C40.8424438,6.79613208 40.720465,8.14418868 40.720465,8.14418868 L40.720465,11.3792453 C40.720465,11.8016038 40.6943771,12.179283 40.6711095,12.5681321 L40.6816857,12.5590566 C40.578039,17.0123208 41.7505864,18.9844906 44.7098057,19.0878113 C45.4466139,19.1171321 60.2187377,19.0885094 60.2187377,19.0885094 L60.2187377,19.0885094 Z M34.5333911,3.74607547 C34.5333911,3.74607547 36.0789257,4.09373585 37.400245,4.67945283 C38.8209805,5.19884906 40.0640359,5.84111321 40.1324286,5.87881132 L41.3684332,3.02073585 C41.3684332,3.02073585 39.8835355,2.11318868 38.6369547,1.70828302 C37.3233913,1.17911321 35.7623449,0.891490566 35.7623449,0.891490566 L34.5087133,3.79145283 L34.5157641,3.79703774 L34.5333911,3.74607547 Z" id="Shape"></path>
                    <path d="M212.630165,5.25818868 L205.886783,5.25818868 L205.886783,4.22777358 L212.630165,4.22777358 L212.630165,5.25818868 L212.630165,5.25818868 Z M212.630165,8.39341509 L205.886783,8.39341509 L205.886783,7.36858491 L212.630165,7.36858491 L212.630165,8.39341509 L212.630165,8.39341509 Z M212.630165,11.5384151 L205.886783,11.5384151 L205.886783,10.5052075 L212.630165,10.5052075 L212.630165,11.5384151 L212.630165,11.5384151 Z M216.70482,0.29809434 L213.693425,0.29809434 C213.693425,0.29809434 212.62946,0.314849057 212.62946,1.26498113 L212.62946,2.11737736 L205.959406,2.11737736 L205.967162,0.943150943 C205.967162,0.943150943 205.972803,0.173132075 204.775578,0.603169811 C203.983773,0.891490566 202.186525,1.59588679 201.049937,2.0454717 C199.997958,2.49645283 200.038148,3.44169811 200.038148,3.44169811 L200.038148,5.63028302 L201.810013,4.98732075 L201.810013,12.0913208 C201.810013,12.0913208 201.706366,13.646717 203.167996,13.646717 L211.191097,13.646717 L211.193213,14.7301887 L200.038853,14.7301887 L200.038853,16.921566 L206.042606,16.921566 C204.370157,18.4462453 201.34043,19.0152075 200.038853,19.1150377 L200.038853,21.9012075 C200.8088,21.8865472 206.962735,21.8488491 211.110013,16.921566 L211.193213,16.921566 L211.198148,21.9012075 L212.790923,21.9012075 C215.312993,21.9012075 215.265753,20.1573208 215.265753,20.1573208 L215.265753,16.921566 L215.356708,16.921566 C219.624555,21.9877736 225.656512,21.8858491 226.428574,21.9012075 L226.428574,19.0473208 C225.368839,18.9851887 221.924525,18.5111698 220.42059,16.921566 L226.418703,16.921566 L226.418703,14.7301887 L215.265753,14.7301887 L215.265753,13.646717 L226.428574,13.646717 L226.428574,11.5384151 L216.70341,11.5384151 L216.70341,10.5059057 L226.428574,10.5059057 L226.428574,8.39341509 L216.70341,8.39341509 L216.70341,7.36858491 L226.428574,7.36858491 L226.428574,5.25818868 L216.70341,5.25818868 L216.70341,4.22777358 L226.428574,4.22777358 L226.428574,2.82875472 C226.428574,2.82875472 226.491326,2.11737736 225.661447,2.11737736 L216.70341,2.11737736 L216.70341,0.29809434 L216.70482,0.29809434 Z" id="Shape"></path>
                    <path d="M254.05994,19.8375849 L237.730296,19.8375849 L237.730296,2.42524528 L254.05994,2.42524528 L254.05994,19.8375849 L254.05994,19.8375849 Z M258.13389,1.43601887 C258.049281,0.772113208 257.501434,0.253415094 256.811161,0.253415094 L235.013624,0.253415094 C234.261304,0.253415094 233.662691,0.851 233.654935,1.58681132 L233.654935,20.5796792 C233.661281,21.2743019 234.204897,21.8341887 234.897285,21.8928302 L256.925384,21.8928302 C257.602965,21.8341887 258.139531,21.2938491 258.164209,20.6069057 L258.13389,1.43601887 L258.13389,1.43601887 Z M239.358324,13.9866981 L239.358324,17.3229811 C240.226277,17.198717 245.011653,15.7906226 246.641797,13.3234906 L246.641797,18.4071509 L248.238098,18.4071509 C250.840547,18.4071509 250.715747,16.6660566 250.715747,16.6660566 L250.715747,8.27892453 L252.919826,8.27892453 L252.919826,6.10150943 L250.715747,6.10150943 L250.715747,3.98622642 L246.641797,3.98622642 L246.641797,6.10150943 L239.270189,6.10150943 L239.270189,8.27892453 L246.609364,8.27892453 C244.386953,12.3733585 240.07539,13.7723774 239.358324,13.9866981 Z" id="Shape"></path>
                    <path d="M67.4676616,21.9773019 L67.4676616,3.03260377 C67.4620209,1.77739623 68.5034236,0.878924528 69.7887838,0.891490566 L91.2203848,0.891490566 C92.3590885,0.892188679 93.2122348,1.31664151 93.2277466,2.71566038 L93.2277466,18.382717 C93.310946,20.8456604 91.7294523,22.0436226 88.4896113,21.9773019 L86.4209077,21.9773019 L86.4209077,18.9579623 L87.7450472,18.9579623 C88.7998464,18.9579623 89.2017418,18.604717 89.2017418,17.6936792 L89.2017418,3.67486792 L71.4936664,3.67486792 L71.4936664,21.978 L67.4676616,21.978 L67.4676616,21.9773019 Z M80.7083523,17.7132264 C82.4090044,16.3365472 83.6682767,14.6401321 84.4770031,13.6083208 C85.529687,14.9263585 86.742424,16.5976415 88.1215598,17.6287547 L88.1215598,14.1472642 C87.1027197,13.233434 86.4209077,12.5548679 85.8145392,11.6284717 C86.9447818,9.85107547 87.8000435,7.93126415 88.3655173,4.89167925 L85.5712867,4.89167925 C85.2448348,6.26835849 84.8817188,7.2415283 84.4777081,8.79064151 C84.0729924,7.64154717 83.6689818,6.67256604 83.2642661,4.89167925 L80.5891939,4.89167925 C81.2371621,7.99060377 82.0458884,9.90692453 83.0203085,11.6284717 C82.4195806,12.5904717 81.7356534,13.270434 80.7083523,14.1472642 L80.7083523,17.7132264 L80.7083523,17.7132264 Z M80.2260778,17.7132264 L80.2260778,14.1472642 C79.3038337,13.3297736 78.7059261,12.7929245 78.2821733,12.2309434 C78.0572528,11.9328491 77.872522,11.7422642 77.7949632,11.6284717 C78.9301415,9.90622642 79.7804675,7.98990566 80.3452363,4.89167925 L77.5510057,4.89167925 C77.2245538,6.55458491 76.8198381,7.49843396 76.3375636,8.70267925 C76.0111117,8.01643396 75.7163884,7.2415283 75.3631435,5.40967925 C75.3067371,5.11856604 75.243985,4.92169811 75.243985,4.80720755 L72.3249553,4.80720755 C72.8953647,8.01992453 73.7456908,9.99488679 74.8759335,11.7129434 C74.2907174,12.7691887 73.5778818,13.3172075 72.5689128,14.1472642 L72.5689128,17.7132264 C74.269565,16.3365472 75.5239017,14.6401321 76.3375636,13.6083208 C77.3902475,14.7574151 78.6861839,16.4538302 80.2260778,17.7132264 Z" id="Shape"></path>
                    <path d="M151.891784,6.47779245 C149.887947,5.59328302 147.807257,4.95660377 145.656059,4.57892453 L145.656059,2.10411321 C148.178129,2.22977358 150.258114,2.67586792 151.891784,3.43471698 L151.891784,6.47779245 L151.891784,6.47779245 Z M151.897424,12.4669057 C149.675013,11.2619623 147.52311,10.5317358 145.443125,10.279717 L145.443125,7.71135849 C147.817833,7.9019434 149.969031,8.4094717 151.897424,9.23254717 L151.897424,12.4669057 L151.897424,12.4669057 Z M144.892458,16.65 L152.728008,16.65 L152.728008,22.1636981 L154.728319,22.1636981 C156.168797,22.1685849 157.024764,21.6456981 157.026879,19.8480566 L157.026879,16.65 L159.919115,16.65 L159.919115,14.2722264 L157.026879,14.2722264 L157.026879,0.388150943 L152.728008,0.388150943 L152.728008,14.2722264 L144.892458,14.2722264 L144.892458,16.65 L144.892458,16.65 Z M134.139288,3.52826415 L134.139288,2.95511321 C134.163261,1.75924528 135.026278,1.32781132 136.270039,1.24333962 L139.705187,1.24333962 C141.039903,1.24333962 142.816703,1.05275472 144.673883,0.675075472 L144.673883,3.04866038 C143.633891,3.30416981 142.555824,3.46264151 141.444618,3.52756604 L141.444618,6.28301887 L144.451078,6.28301887 L144.451078,8.56724528 L141.444618,8.56724528 C142.185657,10.3404528 143.149501,11.235434 144.336855,12.6309623 L144.336855,16.5522642 C143.149501,15.4771698 142.185657,13.5657358 141.444618,12.5513774 L141.444618,22.1636981 L137.47784,22.1636981 L137.47784,13.5985472 C136.513996,15.0548113 135.217355,17.3481132 133.583685,18.7436415 L133.583685,14.3176038 C135.43734,11.9810189 136.408235,10.7788679 137.255035,8.5679434 L133.916483,8.5679434 L133.916483,6.28301887 L137.478545,6.28301887 L137.478545,3.52826415 L134.139288,3.52826415 Z" id="Shape"></path>
                    <path d="M176.55829,5.58909434 L176.55829,2.99001887 L182.13406,2.99001887 L182.13406,0.451679245 L186.482286,0.451679245 L186.482286,2.99001887 L192.728587,2.99001887 L192.728587,5.58909434 L186.482286,5.58909434 L186.482286,8.25449057 L192.058056,8.25449057 L192.058056,10.5121887 C191.015948,13.455434 189.417533,15.8045849 187.262809,17.5610377 C188.885903,18.3945849 190.662703,18.8734906 192.838579,19.1310943 L192.838579,22.0722453 C189.717897,21.7364528 186.682529,20.639717 184.365637,19.3454151 C182.401285,20.3953774 179.199519,21.4613962 175.554962,22.064566 L175.554962,19.1827547 C177.945887,18.9949623 179.882036,18.5230377 181.68704,17.5617358 C179.831975,16.058 178.266698,14.0209057 177.006016,11.4511509 L181.240019,11.4511509 C182.13406,13.0191132 183.214242,14.3664717 184.474924,15.4925283 C185.811755,14.177283 186.930012,12.5171698 187.819117,10.5128868 L176.782505,10.5128868 L176.782505,8.25518868 L182.134765,8.25518868 L182.134765,5.58979245 L176.55829,5.58979245 L176.55829,5.58909434 Z M167.304825,5.89137736 L169.754977,5.89137736 L169.754977,11.2305472 C169.460253,11.2905849 169.011823,11.2905849 168.418146,11.3226981 C167.820238,11.3548113 167.376038,11.4190377 167.081315,11.4190377 L167.081315,14.2380189 C168.118487,14.1737925 169.012528,14.0495283 169.754977,13.8610377 L169.754977,18.0057358 C169.754977,18.6954717 169.384105,19.0403396 168.641656,19.0403396 L167.747615,19.0403396 L167.747615,21.9759057 L170.202702,21.9759057 C172.581641,21.9759057 173.770405,20.9734151 173.770405,18.968434 L173.770405,13.0149245 C174.440936,12.826434 175.183385,12.5779057 176.001277,12.2609623 L176.001277,9.91530189 C175.183385,10.1638302 174.440936,10.3523208 173.770405,10.4765849 L173.770405,5.89137736 L175.887054,5.89137736 L175.887054,3.29230189 L173.770405,3.29230189 L173.770405,0.552207547 L169.754977,0.552207547 L169.754977,3.29230189 L167.304825,3.29230189 L167.304825,5.89137736 Z" id="Shape"></path>
                    <path d="M219.240992,33.867566 L219.240992,32.5516226 L222.90247,32.5516226 L222.90247,35.6666038 C222.546405,35.9856415 222.030992,36.2669811 221.355526,36.5120189 C220.680059,36.7563585 219.996132,36.8771321 219.303744,36.8771321 C218.423099,36.8771321 217.656678,36.7053962 217.002364,36.3633208 C216.34805,36.0184528 215.85661,35.5283774 215.527337,34.8903019 C215.198065,34.2515283 215.033077,33.5576038 215.033077,32.8057358 C215.033077,31.9931321 215.217807,31.2691887 215.584449,30.636 C215.951795,30.0021132 216.489066,29.5176226 217.196966,29.1790377 C217.736352,28.9200377 218.407588,28.7901887 219.210673,28.7901887 C220.255601,28.7901887 221.071379,28.9933396 221.658005,29.4010377 C222.245336,29.8080377 222.623259,30.370717 222.791068,31.0890755 L221.104517,31.3829811 C220.986064,30.999717 220.762554,30.6953396 220.435397,30.4726415 C220.10824,30.2506415 219.700704,30.1389434 219.209968,30.1389434 C218.468225,30.1389434 217.878073,30.3574528 217.440924,30.7958679 C217.002364,31.2328868 216.782379,31.881434 216.782379,32.7429057 C216.782379,33.6720943 217.005184,34.3660189 217.449384,34.8323585 C217.892174,35.2959057 218.473865,35.5283774 219.193752,35.5283774 C219.549112,35.5283774 219.905177,35.4620566 220.263357,35.3315094 C220.621538,35.2023585 220.928247,35.045283 221.184191,34.860283 L221.184191,33.867566 L219.240992,33.867566 L219.240992,33.867566 Z M224.357755,36.8771321 L224.357755,28.7894906 L228.053782,28.7894906 C228.983077,28.7894906 229.658544,28.8627925 230.080181,29.0066038 C230.500409,29.1518113 230.838142,29.4108113 231.091971,29.7815094 C231.343684,30.1536038 231.471303,30.5787547 231.471303,31.0569623 C231.471303,31.6629245 231.279522,32.1648679 230.895958,32.56 C230.51169,32.9551321 229.93846,33.2043585 229.174859,33.3069811 C229.555602,33.5129245 229.868657,33.7398113 230.115435,33.9862453 C230.362918,34.2326792 230.696421,34.6696981 231.114533,35.2986981 L232.177088,36.876434 L230.077361,36.876434 L228.806807,35.1150943 C228.356262,34.4874906 228.047437,34.0909623 227.881038,33.9283019 C227.713934,33.7614528 227.538369,33.6525472 227.352933,33.5911132 C227.166792,33.5310755 226.872069,33.4996604 226.468058,33.4996604 L226.112698,33.4996604 L226.112698,36.8757358 L224.357755,36.8757358 L224.357755,36.8771321 Z M226.113403,32.2088491 L227.41216,32.2088491 C228.254025,32.2088491 228.781425,32.1760377 228.990128,32.109717 C229.200947,32.0440943 229.36382,31.9296038 229.482979,31.7676415 C229.602137,31.6049811 229.660659,31.4032264 229.660659,31.1609811 C229.660659,30.8894151 229.582395,30.6695094 229.425867,30.5012642 C229.270045,30.333717 229.05006,30.2276038 228.764503,30.1850189 C228.622782,30.1661698 228.196208,30.1577925 227.484078,30.1577925 L226.114108,30.1577925 L226.114108,32.2088491 L226.113403,32.2088491 Z M233.632373,32.8916038 C233.632373,32.0957547 233.759992,31.4283585 234.015936,30.8894151 C234.206307,30.4921887 234.466482,30.1368491 234.797164,29.8206038 C235.126436,29.5036604 235.489552,29.2704906 235.882282,29.1162075 C236.404041,28.9116604 237.008294,28.8097358 237.692221,28.8097358 C238.927521,28.8097358 239.917453,29.1657736 240.660607,29.8792453 C241.40235,30.592717 241.772517,31.5840377 241.772517,32.8553019 C241.772517,34.114 241.405171,35.0997358 240.668362,35.8104151 C239.930849,36.5210943 238.946558,36.8771321 237.714079,36.8771321 C236.466088,36.8771321 235.473336,36.5231887 234.737232,35.8153019 C234.001129,35.1074151 233.632373,34.1328491 233.632373,32.8916038 L233.632373,32.8916038 Z M235.378855,32.8364528 C235.378855,33.7209623 235.598135,34.3911509 236.036694,34.8463208 C236.476664,35.3028868 237.033677,35.5311698 237.707733,35.5311698 C238.384609,35.5311698 238.937392,35.3049811 239.370311,34.8519057 C239.803935,34.3995283 240.020394,33.7216604 240.020394,32.8155094 C240.020394,31.9226226 239.81028,31.2559245 239.387233,30.814717 C238.965595,30.3756038 238.405762,30.155 237.707028,30.155 C237.009704,30.155 236.44564,30.3783962 236.019067,30.8237925 C235.591789,31.2677925 235.378855,31.9407736 235.378855,32.8364528 L235.378855,32.8364528 Z M243.227096,28.8006604 L244.951721,28.8006604 L244.951721,33.1003396 C244.951721,33.7837925 244.973579,34.2263962 245.016589,34.4288491 C245.089917,34.7541698 245.266187,35.0159623 245.543283,35.211434 C245.821085,35.4083019 246.200417,35.507434 246.683397,35.507434 C247.171312,35.507434 247.541479,35.4138868 247.789667,35.2267925 C248.039265,35.0417925 248.188742,34.8128113 248.238098,34.5426415 C248.288863,34.2724717 248.314951,33.8214906 248.314951,33.1924906 L248.314951,28.8006604 L250.038871,28.8006604 L250.038871,32.9704906 C250.038871,33.9241132 249.993746,34.5977925 249.899265,34.9922264 C249.806195,35.3859623 249.634155,35.7182642 249.383852,35.9891321 C249.132844,36.2593019 248.798636,36.4750189 248.378408,36.6355849 C247.958886,36.7961509 247.411039,36.876434 246.735573,36.876434 C245.919091,36.876434 245.300736,36.7891698 244.879803,36.6139434 C244.458166,36.4380189 244.124663,36.2118302 243.88,35.9325849 C243.635338,35.6505472 243.474579,35.3587358 243.396316,35.0501698 C243.283503,34.595 243.227802,33.9234151 243.227802,33.034717 L243.227802,28.8006604 L243.227096,28.8006604 Z M251.49345,36.8771321 L251.49345,28.792283 L254.312359,28.792283 C255.379144,28.792283 256.076468,28.8306792 256.4001,28.9123585 C256.897886,29.0331321 257.315293,29.2984151 257.652321,29.704717 C257.988644,30.1096226 258.155748,30.636 258.155748,31.2803585 C258.155748,31.7760189 258.059857,32.1934906 257.865255,32.5313774 C257.672063,32.8699623 257.42599,33.1366415 257.127037,33.3286226 C256.828083,33.5226981 256.524899,33.6483585 256.215369,33.7118868 C255.796551,33.7893774 255.188068,33.8291698 254.394148,33.8291698 L253.249099,33.8291698 L253.249099,36.8778302 L251.49345,36.8778302 L251.49345,36.8771321 Z M253.249804,30.1598868 L253.249804,32.4538868 L254.210122,32.4538868 C254.903215,32.4538868 255.366453,32.4106038 255.599129,32.325434 C255.833216,32.2416604 256.015831,32.109717 256.147681,31.9289057 C256.281646,31.7480943 256.347219,31.5407547 256.347219,31.3006038 C256.347219,31.006 256.254148,30.7623585 256.069417,30.5731698 C255.882571,30.3811887 255.647075,30.2618113 255.361517,30.2129434 C255.152814,30.1773396 254.731881,30.1591887 254.09872,30.1591887 L253.249804,30.1591887 L253.249804,30.1598868 Z M106.53683,29.7829057 L106.53683,28.798566 L114.575443,28.798566 L114.575443,29.7829057 L111.420917,29.7829057 L111.420917,36.8771321 L109.649052,36.8771321 L109.649052,29.7829057 L106.53683,29.7829057 L106.53683,29.7829057 Z M98.8888311,36.8736415 L98.8888311,28.7978679 L105.280378,28.7978679 L105.280378,29.7752264 L100.749536,29.7752264 L100.749536,32.2542264 L104.971553,32.2542264 L104.971553,33.2301887 L100.749536,33.2301887 L100.749536,35.9339811 L105.280378,35.9339811 L105.280378,36.8729434 L98.8888311,36.8729434 L98.8888311,36.8736415 Z M90.3615978,36.8750377 L90.3615978,28.7978679 L92.0107791,28.7978679 L96.0537058,34.7436981 L96.0537058,28.7978679 L97.6323792,28.7978679 L97.6323792,36.8750377 L96.0931903,36.8750377 L92.0107791,31.0793019 L92.0107791,36.8750377 L90.3615978,36.8750377 L90.3615978,36.8750377 Z M81.3499748,36.8750377 L81.3499748,28.798566 L85.0156839,28.798566 C85.937223,28.798566 86.6070487,28.8718679 87.0251609,29.0156792 C87.441863,29.1608868 87.7767758,29.4198868 88.0291943,29.7891887 C88.2787925,30.161283 88.4057069,30.5857358 88.4057069,31.0625472 C88.4057069,31.6678113 88.2153354,32.1690566 87.8345924,32.5634906 C87.4538493,32.9579245 86.8848501,33.2071509 86.1275945,33.3090755 C86.5055172,33.5143208 86.8150472,33.7412075 87.0604149,33.9876415 C87.3057826,34.2333774 87.636465,34.6703962 88.0510518,35.2986981 L89.1051459,36.8743396 L87.0223406,36.8743396 L85.7623633,35.1157925 C85.3160478,34.4888868 85.0093382,34.0930566 84.8443496,33.9303962 C84.6793609,33.7642453 84.5045012,33.6553396 84.3204754,33.5932075 C84.1357445,33.5331698 83.8438415,33.5024528 83.4433563,33.5024528 L83.0915215,33.5024528 L83.0915215,36.8743396 L81.3499748,36.8743396 L81.3499748,36.8750377 Z M83.0915215,32.2130377 L84.3797021,32.2130377 C85.2145164,32.2130377 85.7376855,32.1802264 85.9449789,32.1139057 C86.1543875,32.048283 86.3158508,31.9337925 86.4343042,31.7725283 C86.5520525,31.610566 86.609869,31.4088113 86.609869,31.166566 C86.609869,30.895 86.5323102,30.6757925 86.3771927,30.5082453 C86.2227803,30.3406981 86.0042056,30.2345849 85.7207636,30.192 C85.5797476,30.1731509 85.1566998,30.1647736 84.4509151,30.1647736 L83.0922266,30.1647736 L83.0922266,32.2130377 L83.0915215,32.2130377 Z M73.7019758,36.8736415 L73.7019758,28.7978679 L80.0935229,28.7978679 L80.0935229,29.7752264 L75.562681,29.7752264 L75.562681,32.2542264 L79.784698,32.2542264 L79.784698,33.2301887 L75.562681,33.2301887 L75.562681,35.9339811 L80.0935229,35.9339811 L80.0935229,36.8729434 L73.7019758,36.8729434 L73.7019758,36.8736415 Z M64.4069108,29.7822075 L64.4069108,28.798566 L72.4455239,28.798566 L72.4455239,29.7822075 L69.2909976,29.7822075 L69.2909976,36.8722453 L67.5191324,36.8722453 L67.5191324,29.7822075 L64.4069108,29.7822075 L64.4069108,29.7822075 Z M55.8803826,36.8750377 L55.8803826,28.7978679 L57.5295639,28.7978679 L61.5724906,34.7436981 L61.5724906,28.7978679 L63.151164,28.7978679 L63.151164,36.8750377 L61.6119751,36.8750377 L57.5295639,31.0793019 L57.5295639,36.8750377 L55.8803826,36.8750377 L55.8803826,36.8750377 Z M52.7547645,36.8750377 L52.7547645,28.7978679 L54.6239307,28.7978679 L54.6239307,36.8750377 L52.7547645,36.8750377 L52.7547645,36.8750377 Z M2.3077257,36.8771321 L0.219279771,28.8188113 L2.02780907,28.8188113 L3.3470131,34.3541509 L4.94613375,28.8188113 L7.0472711,28.8188113 L8.58081934,34.4476981 L9.923291,28.8188113 L11.702207,28.8188113 L9.57780197,36.8771321 L7.70370026,36.8771321 L5.96144844,30.851717 L4.22413218,36.8771321 L2.3077257,36.8771321 L2.3077257,36.8771321 Z M20.0115706,36.8771321 L16.5080299,28.8188113 L14.6402739,28.8188113 L11.2326239,36.8771321 L13.1067256,36.8771321 L13.8287272,35.0473774 L17.3259222,35.0473774 L18.0895235,36.8771321 L20.0115706,36.8771321 L20.0115706,36.8771321 Z M16.7590382,33.6902453 L14.3716385,33.6902453 L15.5540571,30.6981321 L16.7590382,33.6902453 L16.7590382,33.6902453 Z M21.4887125,36.8771321 L21.4887125,28.8188113 L23.2069916,28.8188113 L26.7880912,34.1998679 L26.7880912,28.8188113 L28.4281064,28.8188113 L28.4281064,36.8771321 L26.6562413,36.8771321 L23.1287278,31.622434 L23.1287278,36.8771321 L21.4887125,36.8771321 L21.4887125,36.8771321 Z M29.8058321,28.8188113 L33.0343918,28.8188113 C33.7627391,28.8188113 34.3183418,28.8690755 34.6990848,28.971 C35.2130879,29.1106226 35.6523525,29.3577547 36.0189939,29.7137925 C36.3849303,30.0698302 36.6627317,30.5047547 36.8531032,31.0192642 C37.0448848,31.5337736 37.1407757,32.1690566 37.1407757,32.923717 C37.1407757,33.5876226 37.0512305,34.1593774 36.8721403,34.6396792 C36.6521555,35.2260943 36.3405103,35.7015094 35.9336793,36.0638302 C35.6283798,36.3374906 35.213793,36.5525094 34.6927391,36.7067925 C34.302125,36.8191887 33.7810711,36.876434 33.1295775,36.876434 L29.805127,36.876434 L29.805127,28.8188113 L29.8058321,28.8188113 Z M31.5720566,30.1822264 L31.5720566,35.52 L32.8912606,35.52 C33.3834062,35.52 33.7401765,35.4934717 33.9587512,35.4425094 C34.2457186,35.3761887 34.4826254,35.2651887 34.6722918,35.106717 C34.8619582,34.9503396 35.0156656,34.6899434 35.1355291,34.329717 C35.2553927,33.9680943 35.3146194,33.4759245 35.3146194,32.8539057 C35.3146194,32.2304906 35.2553927,31.7529811 35.1355291,31.4178868 C35.0156656,31.0848868 34.8492668,30.8244906 34.6342175,30.6366981 C34.4198733,30.451 34.1463024,30.3253396 33.81562,30.2590189 C33.5688421,30.2066604 33.0865677,30.1822264 32.3666813,30.1822264 L31.5720566,30.1822264 L31.5720566,30.1822264 Z M46.048752,36.8771321 L44.128115,36.8771321 L43.3631036,35.0473774 L39.8652034,35.0473774 L39.1432019,36.8771321 L37.2698052,36.8771321 L40.6781603,28.8188113 L42.5452112,28.8188113 L46.048752,36.8771321 L46.048752,36.8771321 Z M42.7969246,33.6902453 L41.5912384,30.6981321 L40.4095249,33.6902453 L42.7969246,33.6902453 L42.7969246,33.6902453 Z M195.274629,33.8892075 L195.274629,32.5690755 L198.947389,32.5690755 L198.947389,35.6938302 C198.590619,36.0142642 198.073091,36.2963019 197.395509,36.5420377 C196.717928,36.7870755 196.031885,36.9085472 195.338087,36.9085472 C194.454622,36.9085472 193.686085,36.7368113 193.029656,36.3933396 C192.373227,36.0470755 191.880376,35.5556038 191.549694,34.915434 C191.219716,34.274566 191.054023,33.5785472 191.054023,32.8245849 C191.054023,32.0091887 191.239459,31.2831509 191.606805,30.6478679 C191.974857,30.0118868 192.514243,29.526 193.224258,29.1860189 C193.765054,28.9263208 194.438405,28.7957736 195.244311,28.7957736 C196.292764,28.7957736 197.110657,29.0003208 197.699398,29.408717 C198.288845,29.8164151 198.667473,30.3818868 198.835987,31.1016415 L197.144501,31.3962453 C197.026047,31.0115849 196.801832,30.7065094 196.473265,30.4831132 C196.145403,30.2604151 195.736457,30.148717 195.244311,30.148717 C194.500452,30.148717 193.908185,30.3679245 193.469626,30.8070377 C193.029656,31.2454528 192.808966,31.8960943 192.808966,32.7603585 C192.808966,33.6923396 193.032476,34.3883585 193.478087,34.8560943 C193.922287,35.3210377 194.505388,35.5542075 195.227389,35.5542075 C195.584159,35.5542075 195.941635,35.4878868 196.30052,35.3573396 C196.659406,35.2281887 196.967526,35.0704151 197.224175,34.8840189 L197.224175,33.8885094 L195.274629,33.8885094 L195.274629,33.8892075 Z M182.191171,32.8860189 C182.191171,32.0887736 182.318791,31.4206792 182.57544,30.8810377 C182.765811,30.4831132 183.027396,30.1270755 183.357373,29.8101321 C183.68735,29.4924906 184.050467,29.2593208 184.443901,29.1043396 C184.96707,28.8997925 185.572028,28.7971698 186.256661,28.7971698 C187.494076,28.7971698 188.485418,29.1539057 189.228571,29.8687736 C189.971725,30.5836415 190.342597,31.5763585 190.342597,32.8490189 C190.342597,34.1091132 189.974546,35.0962453 189.237032,35.8083208 C188.498814,36.5196981 187.512408,36.876434 186.278518,36.876434 C185.028412,36.876434 184.034955,36.5217925 183.297441,35.8132075 C182.560633,35.1046226 182.191171,34.1286604 182.191171,32.8860189 L182.191171,32.8860189 Z M183.939769,32.8308679 C183.939769,33.7167736 184.159049,34.3876604 184.598313,34.8435283 C185.038988,35.3000943 185.596706,35.5290755 186.272172,35.5290755 C186.949754,35.5290755 187.503947,35.3021887 187.937571,34.8484151 C188.3719,34.3953396 188.588359,33.7167736 188.588359,32.8092264 C188.588359,31.9149434 188.378245,31.2475472 187.954493,30.8063396 C187.53215,30.3665283 186.971612,30.1452264 186.272172,30.1452264 C185.573439,30.1452264 185.009375,30.3686226 184.582097,30.814717 C184.152703,31.2601132 183.939769,31.9337925 183.939769,32.8308679 L183.939769,32.8308679 Z M156.465635,36.8750377 L156.465635,28.7978679 L158.114817,28.7978679 L162.157743,34.7436981 L162.157743,28.7978679 L163.736417,28.7978679 L163.736417,36.8750377 L162.197228,36.8750377 L158.114817,31.0793019 L158.114817,36.8750377 L156.465635,36.8750377 L156.465635,36.8750377 Z M144.108409,31.3047925 C143.799585,30.2911321 143.159372,29.8583019 142.182837,29.8764528 C140.640123,29.9057736 139.68615,30.8698679 139.699546,32.8978868 C139.712238,34.8079245 140.780433,35.8920943 142.529736,35.8111132 C143.462556,35.7685283 144.092898,35.2882264 144.77753,34.5230943 L145.610934,35.1835094 C144.891753,36.1496981 143.734717,36.8931887 142.143352,36.8464151 C139.626218,36.7724151 137.939668,35.3887547 137.939668,32.8266792 C137.939668,30.2883396 139.610706,28.8704717 142.105278,28.8055472 C143.689592,28.7643585 144.836052,29.3773019 145.360631,30.4775283 L145.517159,30.8063396 L144.108409,31.3047925 L144.108409,31.3047925 Z M130.768302,36.8736415 L130.768302,28.7978679 L137.159849,28.7978679 L137.159849,29.7752264 L132.629008,29.7752264 L132.629008,32.2542264 L136.851025,32.2542264 L136.851025,33.2301887 L132.629008,33.2301887 L132.629008,35.9339811 L137.159849,35.9339811 L137.159849,36.8729434 L130.768302,36.8729434 L130.768302,36.8736415 Z M121.425997,29.7829057 L121.425997,28.798566 L129.46461,28.798566 L129.46461,29.7829057 L126.310084,29.7829057 L126.310084,36.8771321 L124.538219,36.8771321 L124.538219,29.7829057 L121.425997,29.7829057 L121.425997,29.7829057 Z M169.270587,35.8816226 C171.036106,35.9060566 172.004886,34.8993774 172.002065,32.8811321 C171.99995,31.4479057 171.461269,30.5061509 170.561588,30.0523774 C170.180845,29.8603962 169.792346,29.8178113 169.38763,29.8066415 C168.970223,29.7954717 168.519677,29.8583019 168.114961,30.0398113 C167.141951,30.4775283 166.571542,31.4185849 166.580708,32.8811321 C166.593399,34.8526038 167.557948,35.8578868 169.270587,35.8816226 L169.270587,35.8816226 Z M167.072149,36.5266792 C165.625325,35.9256038 164.834226,34.656434 164.813778,32.8818302 C164.794036,31.1588868 165.642247,29.7954717 167.068623,29.1755472 C167.681337,28.9088679 168.440708,28.8188113 169.304431,28.8216038 C170.046174,28.8236981 170.768176,28.9074717 171.349162,29.1350566 C172.893286,29.7389245 173.756304,31.1337547 173.76547,32.8818302 C173.775341,34.6990189 172.942642,35.9821509 171.434476,36.5671698 C170.746319,36.8338491 170.00951,36.8778302 169.268472,36.8736415 C168.517562,36.8687547 167.763127,36.8136038 167.072149,36.5266792 L167.072149,36.5266792 Z M174.809693,36.8750377 L174.809693,28.8153208 L176.581558,28.8153208 L176.581558,35.8955849 L181.507949,35.8955849 L181.507949,36.8750377 L174.809693,36.8750377 L174.809693,36.8750377 Z M202.893015,36.8736415 L202.893015,33.6427736 L199.34858,28.7936792 L201.204349,28.7936792 L203.804683,32.4015283 L206.445911,28.7936792 L208.258671,28.7936792 L204.669816,33.6427736 L204.669816,36.8736415 L202.893015,36.8736415 L202.893015,36.8736415 Z M147.102178,36.8631698 L147.102178,28.8034528 L148.874043,28.8034528 L148.874043,32.1781321 L153.41123,32.1781321 L153.41123,28.8034528 L155.183095,28.8034528 L155.183095,36.8631698 L153.41123,36.8631698 L153.41123,33.1910943 L148.874043,33.1910943 L148.874043,36.8631698 L147.102178,36.8631698 Z" id="Shape"></path>
                </g>
            </g>
        </g>
    </g>
</svg>
