<?xml version="1.0" encoding="UTF-8"?>
<svg width="69px" height="83px" viewBox="0 0 69 83" version="1.1" xmlns="http://www.w3.org/2000/svg" xmlns:xlink="http://www.w3.org/1999/xlink">
    <!-- Generator: Sketch 43 (38999) - http://www.bohemiancoding.com/sketch -->
    <title>Group 4</title>
    <desc>Created with Sketch.</desc>
    <defs>
        <ellipse id="path-1" cx="32.5" cy="61.121815" rx="23.6575716" ry="13.6118674"></ellipse>
        <filter x="-6.3%" y="-11.0%" width="112.7%" height="122.0%" filterUnits="objectBoundingBox" id="filter-2">
            <feOffset dx="0" dy="0" in="SourceAlpha" result="shadowOffsetOuter1"></feOffset>
            <feGaussianBlur stdDeviation="1" in="shadowOffsetOuter1" result="shadowBlurOuter1"></feGaussianBlur>
            <feColorMatrix values="0 0 0 0 0.281506471   0 0 0 0 1   0 0 0 0 0.974339517  0 0 0 1 0" type="matrix" in="shadowBlurOuter1"></feColorMatrix>
        </filter>
        <ellipse id="path-3" cx="32.5" cy="62" rx="27.8548827" ry="16.0268761"></ellipse>
        <filter x="-5.4%" y="-9.4%" width="110.8%" height="118.7%" filterUnits="objectBoundingBox" id="filter-4">
            <feOffset dx="0" dy="0" in="SourceAlpha" result="shadowOffsetOuter1"></feOffset>
            <feGaussianBlur stdDeviation="1" in="shadowOffsetOuter1" result="shadowBlurOuter1"></feGaussianBlur>
            <feColorMatrix values="0 0 0 0 0.281506471   0 0 0 0 1   0 0 0 0 0.974339517  0 0 0 1 0" type="matrix" in="shadowBlurOuter1"></feColorMatrix>
        </filter>
        <ellipse id="path-5" cx="32.5" cy="62" rx="32.1531986" ry="18.5"></ellipse>
        <filter x="-4.7%" y="-8.1%" width="109.3%" height="116.2%" filterUnits="objectBoundingBox" id="filter-6">
            <feOffset dx="0" dy="0" in="SourceAlpha" result="shadowOffsetOuter1"></feOffset>
            <feGaussianBlur stdDeviation="1" in="shadowOffsetOuter1" result="shadowBlurOuter1"></feGaussianBlur>
            <feColorMatrix values="0 0 0 0 0.281506471   0 0 0 0 1   0 0 0 0 0.974339517  0 0 0 1 0" type="matrix" in="shadowBlurOuter1"></feColorMatrix>
        </filter>
        <path d="M0.108744372,0.459150011 C0.127788276,0.3363468 0.137648836,0.213433033 0.138327229,0.0905085559 L0.112641515,4.74815655 C0.112412514,4.78965357 0.111137305,4.83114937 0.108815839,4.8726401 L0.108744372,4.8726401 L0.108744372,0.459150011 L0.108744372,0.459150011 Z" id="path-7"></path>
        <linearGradient x1="50%" y1="208.686449%" x2="50%" y2="0%" id="linearGradient-9">
            <stop stop-color="#3F75CB" offset="0%"></stop>
            <stop stop-color="#00D7F0" offset="100%"></stop>
        </linearGradient>
        <path d="M0.0132878485,0.977743978 C0.134124384,0.686517446 0.202728612,0.393684595 0.219116496,0.100599346 L0.222250556,0.100599346 L0.197250706,4.63387807 C0.195522833,4.94698474 0.134232979,5.26002193 0.0133601905,5.57133872 L0.0132878485,5.57133872 L0.0132878485,0.977743978 L0.0132878485,0.977743978 Z" id="path-10"></path>
        <path d="M0.00311067125,0.0197435314 C0.504377105,0.0321472269 1.00648146,0.0300191874 1.50726695,0.0133589939 L1.50726695,4.67062305 C1.22081872,4.6803098 0.933934892,4.68524134 0.647019621,4.68541767 L0.616030293,4.68541767 C0.411680643,4.68531094 0.20732568,4.68279188 0.00311067126,4.67786055 L0.00311067126,0.0197435314 L0.00311067125,0.0197435314 Z" id="path-12"></path>
        <path d="M3.85223693e-05,4.65349909 L0.0136165232,0.00902799989 C0.00739518072,2.12260848 1.44041687,4.23950304 4.30974699,5.85220094 C4.96643213,6.22131928 5.66973588,6.54792564 6.40886317,6.83201792 L6.40886317,11.4897869 L6.395039,11.4897869 C5.65600437,11.2056897 4.95274438,10.87908 4.29601308,10.5099632 C1.44334067,8.9064607 0.0103366961,6.80470083 3.85223679e-05,4.70316809 L3.85223693e-05,4.65349909 L3.85223693e-05,4.65349909 Z" id="path-14"></path>
        <path d="M0.108744372,0.459150011 C0.127788276,0.3363468 0.137648836,0.213433033 0.138327229,0.0905085559 L0.112641515,4.74815655 C0.112412514,4.78965357 0.111137305,4.83114937 0.108815839,4.8726401 L0.108744372,4.8726401 L0.108744372,0.459150011 L0.108744372,0.459150011 Z" id="path-16"></path>
        <path d="M0.0132878485,0.977743978 C0.134124384,0.686517446 0.202728612,0.393684595 0.219116496,0.100599346 L0.222250556,0.100599346 L0.197250706,4.63387807 C0.195522833,4.94698474 0.134232979,5.26002193 0.0133601905,5.57133872 L0.0132878485,5.57133872 L0.0132878485,0.977743978 L0.0132878485,0.977743978 Z" id="path-18"></path>
        <path d="M0.00311067125,0.0197435314 C0.504377105,0.0321472269 1.00648146,0.0300191874 1.50726695,0.0133589939 L1.50726695,4.67062305 C1.22081872,4.6803098 0.933934892,4.68524134 0.647019621,4.68541767 L0.616030293,4.68541767 C0.411680643,4.68531094 0.20732568,4.68279188 0.00311067126,4.67786055 L0.00311067126,0.0197435314 L0.00311067125,0.0197435314 Z" id="path-20"></path>
        <path d="M3.85223693e-05,4.65349909 L0.0136165232,0.00902799989 C0.00739518072,2.12260848 1.44041687,4.23950304 4.30974699,5.85220094 C4.96643213,6.22131928 5.66973588,6.54792564 6.40886317,6.83201792 L6.40886317,11.4897869 L6.395039,11.4897869 C5.65600437,11.2056897 4.95274438,10.87908 4.29601308,10.5099632 C1.44334067,8.9064607 0.0103366961,6.80470083 3.85223679e-05,4.70316809 L3.85223693e-05,4.65349909 L3.85223693e-05,4.65349909 Z" id="path-22"></path>
        <path d="M0.108744372,0.459150011 C0.127788276,0.3363468 0.137648836,0.213433033 0.138327229,0.0905085559 L0.112641515,4.74815655 C0.112412514,4.78965357 0.111137305,4.83114937 0.108815839,4.8726401 L0.108744372,4.8726401 L0.108744372,0.459150011 L0.108744372,0.459150011 Z" id="path-24"></path>
        <path d="M0.0132878485,0.977743978 C0.134124384,0.686517446 0.202728612,0.393684595 0.219116496,0.100599346 L0.222250556,0.100599346 L0.197250706,4.63387807 C0.195522833,4.94698474 0.134232979,5.26002193 0.0133601905,5.57133872 L0.0132878485,5.57133872 L0.0132878485,0.977743978 L0.0132878485,0.977743978 Z" id="path-26"></path>
        <path d="M0.00311067125,0.0197435314 C0.504377105,0.0321472269 1.00648146,0.0300191874 1.50726695,0.0133589939 L1.50726695,4.67062305 C1.22081872,4.6803098 0.933934892,4.68524134 0.647019621,4.68541767 L0.616030293,4.68541767 C0.411680643,4.68531094 0.20732568,4.68279188 0.00311067126,4.67786055 L0.00311067126,0.0197435314 L0.00311067125,0.0197435314 Z" id="path-28"></path>
        <path d="M3.85223693e-05,4.65349909 L0.0136165232,0.00902799989 C0.00739518072,2.12260848 1.44041687,4.23950304 4.30974699,5.85220094 C4.96643213,6.22131928 5.66973588,6.54792564 6.40886317,6.83201792 L6.40886317,11.4897869 L6.395039,11.4897869 C5.65600437,11.2056897 4.95274438,10.87908 4.29601308,10.5099632 C1.44334067,8.9064607 0.0103366961,6.80470083 3.85223679e-05,4.70316809 L3.85223693e-05,4.65349909 L3.85223693e-05,4.65349909 Z" id="path-30"></path>
        <path d="M0.108744372,0.459150011 C0.127788276,0.3363468 0.137648836,0.213433033 0.138327229,0.0905085559 L0.112641515,4.74815655 C0.112412514,4.78965357 0.111137305,4.83114937 0.108815839,4.8726401 L0.108744372,4.8726401 L0.108744372,0.459150011 L0.108744372,0.459150011 Z" id="path-32"></path>
        <path d="M0.0132878485,0.977743978 C0.134124384,0.686517446 0.202728612,0.393684595 0.219116496,0.100599346 L0.222250556,0.100599346 L0.197250706,4.63387807 C0.195522833,4.94698474 0.134232979,5.26002193 0.0133601905,5.57133872 L0.0132878485,5.57133872 L0.0132878485,0.977743978 L0.0132878485,0.977743978 Z" id="path-34"></path>
        <path d="M0.00311067125,0.0197435314 C0.504377105,0.0321472269 1.00648146,0.0300191874 1.50726695,0.0133589939 L1.50726695,4.67062305 C1.22081872,4.6803098 0.933934892,4.68524134 0.647019621,4.68541767 L0.616030293,4.68541767 C0.411680643,4.68531094 0.20732568,4.68279188 0.00311067126,4.67786055 L0.00311067126,0.0197435314 L0.00311067125,0.0197435314 Z" id="path-36"></path>
        <path d="M3.85223693e-05,4.65349909 L0.0136165232,0.00902799989 C0.00739518072,2.12260848 1.44041687,4.23950304 4.30974699,5.85220094 C4.96643213,6.22131928 5.66973588,6.54792564 6.40886317,6.83201792 L6.40886317,11.4897869 L6.395039,11.4897869 C5.65600437,11.2056897 4.95274438,10.87908 4.29601308,10.5099632 C1.44334067,8.9064607 0.0103366961,6.80470083 3.85223679e-05,4.70316809 L3.85223693e-05,4.65349909 L3.85223693e-05,4.65349909 Z" id="path-38"></path>
        <path d="M0.108744372,0.459150011 C0.127788276,0.3363468 0.137648836,0.213433033 0.138327229,0.0905085559 L0.112641515,4.74815655 C0.112412514,4.78965357 0.111137305,4.83114937 0.108815839,4.8726401 L0.108744372,4.8726401 L0.108744372,0.459150011 L0.108744372,0.459150011 Z" id="path-40"></path>
        <path d="M0.0132878485,0.977743978 C0.134124384,0.686517446 0.202728612,0.393684595 0.219116496,0.100599346 L0.222250556,0.100599346 L0.197250706,4.63387807 C0.195522833,4.94698474 0.134232979,5.26002193 0.0133601905,5.57133872 L0.0132878485,5.57133872 L0.0132878485,0.977743978 L0.0132878485,0.977743978 Z" id="path-42"></path>
        <path d="M0.00311067125,0.0197435314 C0.504377105,0.0321472269 1.00648146,0.0300191874 1.50726695,0.0133589939 L1.50726695,4.67062305 C1.22081872,4.6803098 0.933934892,4.68524134 0.647019621,4.68541767 L0.616030293,4.68541767 C0.411680643,4.68531094 0.20732568,4.68279188 0.00311067126,4.67786055 L0.00311067126,0.0197435314 L0.00311067125,0.0197435314 Z" id="path-44"></path>
        <path d="M3.85223693e-05,4.65349909 L0.0136165232,0.00902799989 C0.00739518072,2.12260848 1.44041687,4.23950304 4.30974699,5.85220094 C4.96643213,6.22131928 5.66973588,6.54792564 6.40886317,6.83201792 L6.40886317,11.4897869 L6.395039,11.4897869 C5.65600437,11.2056897 4.95274438,10.87908 4.29601308,10.5099632 C1.44334067,8.9064607 0.0103366961,6.80470083 3.85223679e-05,4.70316809 L3.85223693e-05,4.65349909 L3.85223693e-05,4.65349909 Z" id="path-46"></path>
        <path d="M0.108744372,0.459150011 C0.127788276,0.3363468 0.137648836,0.213433033 0.138327229,0.0905085559 L0.112641515,4.74815655 C0.112412514,4.78965357 0.111137305,4.83114937 0.108815839,4.8726401 L0.108744372,4.8726401 L0.108744372,0.459150011 L0.108744372,0.459150011 Z" id="path-48"></path>
        <path d="M0.0132878485,0.977743978 C0.134124384,0.686517446 0.202728612,0.393684595 0.219116496,0.100599346 L0.222250556,0.100599346 L0.197250706,4.63387807 C0.195522833,4.94698474 0.134232979,5.26002193 0.0133601905,5.57133872 L0.0132878485,5.57133872 L0.0132878485,0.977743978 L0.0132878485,0.977743978 Z" id="path-50"></path>
        <path d="M0.00311067125,0.0197435314 C0.504377105,0.0321472269 1.00648146,0.0300191874 1.50726695,0.0133589939 L1.50726695,4.67062305 C1.22081872,4.6803098 0.933934892,4.68524134 0.647019621,4.68541767 L0.616030293,4.68541767 C0.411680643,4.68531094 0.20732568,4.68279188 0.00311067126,4.67786055 L0.00311067126,0.0197435314 L0.00311067125,0.0197435314 Z" id="path-52"></path>
        <path d="M3.85223693e-05,4.65349909 L0.0136165232,0.00902799989 C0.00739518072,2.12260848 1.44041687,4.23950304 4.30974699,5.85220094 C4.96643213,6.22131928 5.66973588,6.54792564 6.40886317,6.83201792 L6.40886317,11.4897869 L6.395039,11.4897869 C5.65600437,11.2056897 4.95274438,10.87908 4.29601308,10.5099632 C1.44334067,8.9064607 0.0103366961,6.80470083 3.85223679e-05,4.70316809 L3.85223693e-05,4.65349909 L3.85223693e-05,4.65349909 Z" id="path-54"></path>
        <path d="M0.108744372,0.459150011 C0.127788276,0.3363468 0.137648836,0.213433033 0.138327229,0.0905085559 L0.112641515,4.74815655 C0.112412514,4.78965357 0.111137305,4.83114937 0.108815839,4.8726401 L0.108744372,4.8726401 L0.108744372,0.459150011 L0.108744372,0.459150011 Z" id="path-56"></path>
        <path d="M0.0132878485,0.977743978 C0.134124384,0.686517446 0.202728612,0.393684595 0.219116496,0.100599346 L0.222250556,0.100599346 L0.197250706,4.63387807 C0.195522833,4.94698474 0.134232979,5.26002193 0.0133601905,5.57133872 L0.0132878485,5.57133872 L0.0132878485,0.977743978 L0.0132878485,0.977743978 Z" id="path-58"></path>
        <path d="M0.00311067125,0.0197435314 C0.504377105,0.0321472269 1.00648146,0.0300191874 1.50726695,0.0133589939 L1.50726695,4.67062305 C1.22081872,4.6803098 0.933934892,4.68524134 0.647019621,4.68541767 L0.616030293,4.68541767 C0.411680643,4.68531094 0.20732568,4.68279188 0.00311067126,4.67786055 L0.00311067126,0.0197435314 L0.00311067125,0.0197435314 Z" id="path-60"></path>
        <path d="M3.85223693e-05,4.65349909 L0.0136165232,0.00902799989 C0.00739518072,2.12260848 1.44041687,4.23950304 4.30974699,5.85220094 C4.96643213,6.22131928 5.66973588,6.54792564 6.40886317,6.83201792 L6.40886317,11.4897869 L6.395039,11.4897869 C5.65600437,11.2056897 4.95274438,10.87908 4.29601308,10.5099632 C1.44334067,8.9064607 0.0103366961,6.80470083 3.85223679e-05,4.70316809 L3.85223693e-05,4.65349909 L3.85223693e-05,4.65349909 Z" id="path-62"></path>
        <path d="M0.108744372,0.459150011 C0.127788276,0.3363468 0.137648836,0.213433033 0.138327229,0.0905085559 L0.112641515,4.74815655 C0.112412514,4.78965357 0.111137305,4.83114937 0.108815839,4.8726401 L0.108744372,4.8726401 L0.108744372,0.459150011 L0.108744372,0.459150011 Z" id="path-64"></path>
        <path d="M0.0132878485,0.977743978 C0.134124384,0.686517446 0.202728612,0.393684595 0.219116496,0.100599346 L0.222250556,0.100599346 L0.197250706,4.63387807 C0.195522833,4.94698474 0.134232979,5.26002193 0.0133601905,5.57133872 L0.0132878485,5.57133872 L0.0132878485,0.977743978 L0.0132878485,0.977743978 Z" id="path-66"></path>
        <path d="M0.00311067125,0.0197435314 C0.504377105,0.0321472269 1.00648146,0.0300191874 1.50726695,0.0133589939 L1.50726695,4.67062305 C1.22081872,4.6803098 0.933934892,4.68524134 0.647019621,4.68541767 L0.616030293,4.68541767 C0.411680643,4.68531094 0.20732568,4.68279188 0.00311067126,4.67786055 L0.00311067126,0.0197435314 L0.00311067125,0.0197435314 Z" id="path-68"></path>
        <path d="M3.85223693e-05,4.65349909 L0.0136165232,0.00902799989 C0.00739518072,2.12260848 1.44041687,4.23950304 4.30974699,5.85220094 C4.96643213,6.22131928 5.66973588,6.54792564 6.40886317,6.83201792 L6.40886317,11.4897869 L6.395039,11.4897869 C5.65600437,11.2056897 4.95274438,10.87908 4.29601308,10.5099632 C1.44334067,8.9064607 0.0103366961,6.80470083 3.85223679e-05,4.70316809 L3.85223693e-05,4.65349909 L3.85223693e-05,4.65349909 Z" id="path-70"></path>
    </defs>
    <g id="Page-1" stroke="none" stroke-width="1" fill="none" fill-rule="evenodd">
        <g id="车牌分析" transform="translate(-1174.000000, -610.000000)">
            <g id="上海" transform="translate(396.000000, 254.000000)">
                <g id="车牌占比" transform="translate(746.000000, 307.000000)">
                    <g id="Group-4" transform="translate(34.000000, 49.000000)">
                        <g id="Oval-3" opacity="0.149286685">
                            <use fill="black" fill-opacity="1" filter="url(#filter-2)" xlink:href="#path-1"></use>
                            <use fill="#09CDC6" fill-rule="evenodd" xlink:href="#path-1"></use>
                        </g>
                        <g id="Oval-3" opacity="0.0996376812">
                            <use fill="black" fill-opacity="1" filter="url(#filter-4)" xlink:href="#path-3"></use>
                            <use fill="#09CDC6" fill-rule="evenodd" xlink:href="#path-3"></use>
                        </g>
                        <g id="Oval-3" opacity="0.105242301">
                            <use fill="black" fill-opacity="1" filter="url(#filter-6)" xlink:href="#path-5"></use>
                            <use fill="#09CDC6" fill-rule="evenodd" xlink:href="#path-5"></use>
                        </g>
                        <g id="Group-2" transform="translate(18.000000, 0.000000)">
                            <g id="Page-1" transform="translate(0.000000, 46.666667)">
                                <g id="Group-41" transform="translate(0.000000, 8.156741)">
                                    <g id="Group-3" transform="translate(28.993804, 0.000000)">
                                        <mask id="mask-8" fill="white">
                                            <use xlink:href="#path-7"></use>
                                        </mask>
                                        <g id="Clip-2"></g>
                                        <path d="M0.138194372,0.090428561 L0.112508657,4.74819084 C0.112287229,4.78967392 0.111180086,4.83115701 0.108744372,4.8726401 L0.134430086,0.214877825 C0.136644372,0.173394737 0.137972943,0.131911649 0.138194372,0.090428561" id="Fill-1" fill="url(#linearGradient-9)" mask="url(#mask-8)"></path>
                                    </g>
                                    <g id="Group-6" transform="translate(28.993804, 0.114278)">
                                        <mask id="mask-11" fill="white">
                                            <use xlink:href="#path-10"></use>
                                        </mask>
                                        <g id="Clip-5"></g>
                                        <path d="M0.218994991,0.100599346 L0.193309277,4.75836162 C0.178252134,5.02988729 0.118244991,5.30129868 0.0132878485,5.57133872 L0.0389735628,0.913462171 C0.143709277,0.643422124 0.20371642,0.372125013 0.218994991,0.100599346" id="Fill-4" fill="url(#linearGradient-9)" mask="url(#mask-11)"></path>
                                    </g>
                                    <path d="M29.0207082,1.02778636 L29.0070916,5.68554864 C28.9520386,5.95307456 28.8737436,6.21922914 28.7719718,6.48321242 L28.7855884,1.82545015 C28.8872428,1.56146686 28.9656551,1.29531228 29.0207082,1.02778636" id="Fill-7" fill="url(#linearGradient-9)"></path>
                                    <path d="M28.7855884,1.82540444 L28.7719718,6.48316671 C28.6675002,6.75446382 28.5382607,7.02336109 28.3843705,7.28860144 L28.397987,2.63083916 C28.5518772,2.36559881 28.6809994,2.09670155 28.7855884,1.82540444" id="Fill-9" fill="url(#linearGradient-9)"></path>
                                    <path d="M28.3979635,2.63082774 L28.384347,7.28859001 C28.2180141,7.57542899 28.0228048,7.85803967 27.7988365,8.13505071 L27.812453,3.47717416 C28.0364213,3.2002774 28.2316306,2.91766672 28.3979635,2.63082774" id="Fill-11" fill="url(#linearGradient-9)"></path>
                                    <path d="M27.8123943,3.47721987 L27.7987778,8.13498214 C27.537364,8.45827596 27.2365093,8.7740274 26.8964484,9.07972233 L26.9099475,4.42184578 C27.2501258,4.11615085 27.5508632,3.80051369 27.8123943,3.47721987" id="Fill-13" fill="url(#linearGradient-9)"></path>
                                    <path d="M26.9099827,4.42189149 L26.8963662,9.07965377 C26.3748299,9.54853837 25.7606777,9.99399588 25.0540271,10.407684 L25.0676436,5.7499217 C25.7742943,5.33623361 26.388329,4.89077609 26.9099827,4.42189149" id="Fill-15" fill="url(#linearGradient-9)"></path>
                                    <path d="M25.0676084,5.74995599 L25.0539919,10.4077183 C24.9955348,10.4420018 24.9363733,10.4760568 24.8765076,10.5098832 C23.9059781,11.0589913 22.8310945,11.5140482 21.6876587,11.8750539 L21.7011578,7.21717739 C22.844711,6.85628595 23.9194773,6.40122904 24.8901241,5.85212095 C24.9498725,5.81829452 25.0090339,5.78423953 25.0676084,5.74995599" id="Fill-17" fill="url(#linearGradient-9)"></path>
                                    <path d="M21.7012048,7.21721167 L21.6875883,11.8749739 C20.8047445,12.1536992 19.8810513,12.3761994 18.93259,12.5427031 L18.9462065,7.88494083 C19.8945504,7.71843708 20.8183611,7.49593688 21.7012048,7.21721167" id="Fill-19" fill="url(#linearGradient-9)"></path>
                                    <path d="M18.946183,7.88496368 L18.9325665,12.542726 C18.3226402,12.6498049 17.7023841,12.7336853 17.0763761,12.7943672 L17.0899927,8.1366049 C17.7160006,8.07592302 18.3361393,7.99204262 18.946183,7.88496368" id="Fill-21" fill="url(#linearGradient-9)"></path>
                                    <path d="M17.0899457,8.13663918 L17.0763292,12.7944015 C16.5417633,12.8462839 16.0028541,12.8811388 15.462419,12.8990805 L15.4759182,8.24131827 C16.0163533,8.22337655 16.5552624,8.18852161 17.0899457,8.13663918" id="Fill-23" fill="url(#linearGradient-9)"></path>
                                    <g id="Group-27" transform="translate(13.968675, 8.228051)">
                                        <mask id="mask-13" fill="white">
                                            <use xlink:href="#path-12"></use>
                                        </mask>
                                        <g id="Clip-26"></g>
                                        <path d="M1.50726695,0.0133134429 L1.49365043,4.67107572 C0.997469019,4.6876461 0.499879002,4.68981739 0.00311067126,4.67781815 L0.0166098107,0.0200558732 C0.513378141,0.0320551135 1.01096816,0.029769544 1.50726695,0.0133134429" id="Fill-25" fill="url(#linearGradient-9)" mask="url(#mask-13)"></path>
                                    </g>
                                    <path d="M13.9853432,8.24808355 L13.9717267,12.9058458 C13.4925659,12.8943037 13.0141095,12.869391 12.5382355,12.831222 L12.551852,8.17345971 C13.0276086,8.21162872 13.5061824,8.23642715 13.9853432,8.24808355" id="Fill-28" fill="url(#linearGradient-9)"></path>
                                    <path d="M12.5518168,8.17342542 L12.5382002,12.8311877 C12.0633827,12.793133 11.5910302,12.7418219 11.1232557,12.6772546 L11.1368722,8.01949231 C11.6046467,8.08405965 12.0768818,8.13537069 12.5518168,8.17342542" id="Fill-30" fill="url(#linearGradient-9)"></path>
                                    <path d="M11.1368722,8.01948088 L11.1232557,12.6772432 C10.6368171,12.6101617 10.1550739,12.5286811 9.68049112,12.4329158 L9.69399026,7.77515349 C10.1686904,7.87091886 10.6503162,7.95239941 11.1368722,8.01948088" id="Fill-32" fill="url(#linearGradient-9)"></path>
                                    <path d="M9.694002,7.77515349 L9.68038547,12.4329158 C9.16530527,12.3290366 8.65844193,12.2082443 8.1623779,12.070653 L8.17599442,7.41289071 C8.67194107,7.550482 9.17892179,7.67127435 9.694002,7.77515349" id="Fill-34" fill="url(#linearGradient-9)"></path>
                                    <path d="M8.17599442,7.41291357 L8.1623779,12.0706758 C7.55538616,11.9023436 6.96471077,11.7086416 6.39528186,11.4897983 L6.40889838,6.83203606 C6.9783273,7.05087934 7.56900269,7.24446709 8.17599442,7.41291357" id="Fill-36" fill="url(#linearGradient-9)"></path>
                                    <g id="Group-40">
                                        <mask id="mask-15" fill="white">
                                            <use xlink:href="#path-14"></use>
                                        </mask>
                                        <g id="Clip-39"></g>
                                        <path d="M6.40886317,6.83202463 L6.39524664,11.4897869 C5.65619811,11.2056906 4.95283425,10.8790827 4.29607177,10.5099632 C1.42685904,8.89726531 -0.0061626506,6.78037076 5.86919106e-05,4.66679027 L0.0135578313,0.00891372141 C0.00745387263,2.12260848 1.44047556,4.23950304 4.3096883,5.85220094 C4.96645077,6.22132043 5.66969725,6.54792833 6.40886317,6.83202463" id="Fill-38" fill="url(#linearGradient-9)" mask="url(#mask-15)"></path>
                                    </g>
                                </g>
                                <path d="M24.8222528,2.40371069 C30.5233502,5.60819353 30.5541048,10.8043217 24.8901006,14.0088046 C19.2252748,17.2137445 10.0107622,17.2134017 4.30966482,14.0089189 C-1.3921369,10.8040932 -1.42218716,5.60830781 4.24263866,2.40336785 C9.90664279,-0.801114998 19.120451,-0.801114998 24.8222528,2.40371069" id="Fill-42" fill="#6FEDFF"></path>
                            </g>
                            <g id="Page-1-Copy" transform="translate(0.000000, 40.090144)">
                                <g id="Group-41" transform="translate(0.000000, 8.156741)">
                                    <g id="Group-3" transform="translate(28.993804, 0.000000)">
                                        <mask id="mask-17" fill="white">
                                            <use xlink:href="#path-16"></use>
                                        </mask>
                                        <g id="Clip-2"></g>
                                        <path d="M0.138194372,0.090428561 L0.112508657,4.74819084 C0.112287229,4.78967392 0.111180086,4.83115701 0.108744372,4.8726401 L0.134430086,0.214877825 C0.136644372,0.173394737 0.137972943,0.131911649 0.138194372,0.090428561" id="Fill-1" fill="url(#linearGradient-9)" mask="url(#mask-17)"></path>
                                    </g>
                                    <g id="Group-6" transform="translate(28.993804, 0.114278)">
                                        <mask id="mask-19" fill="white">
                                            <use xlink:href="#path-18"></use>
                                        </mask>
                                        <g id="Clip-5"></g>
                                        <path d="M0.218994991,0.100599346 L0.193309277,4.75836162 C0.178252134,5.02988729 0.118244991,5.30129868 0.0132878485,5.57133872 L0.0389735628,0.913462171 C0.143709277,0.643422124 0.20371642,0.372125013 0.218994991,0.100599346" id="Fill-4" fill="url(#linearGradient-9)" mask="url(#mask-19)"></path>
                                    </g>
                                    <path d="M29.0207082,1.02778636 L29.0070916,5.68554864 C28.9520386,5.95307456 28.8737436,6.21922914 28.7719718,6.48321242 L28.7855884,1.82545015 C28.8872428,1.56146686 28.9656551,1.29531228 29.0207082,1.02778636" id="Fill-7" fill="url(#linearGradient-9)"></path>
                                    <path d="M28.7855884,1.82540444 L28.7719718,6.48316671 C28.6675002,6.75446382 28.5382607,7.02336109 28.3843705,7.28860144 L28.397987,2.63083916 C28.5518772,2.36559881 28.6809994,2.09670155 28.7855884,1.82540444" id="Fill-9" fill="url(#linearGradient-9)"></path>
                                    <path d="M28.3979635,2.63082774 L28.384347,7.28859001 C28.2180141,7.57542899 28.0228048,7.85803967 27.7988365,8.13505071 L27.812453,3.47717416 C28.0364213,3.2002774 28.2316306,2.91766672 28.3979635,2.63082774" id="Fill-11" fill="url(#linearGradient-9)"></path>
                                    <path d="M27.8123943,3.47721987 L27.7987778,8.13498214 C27.537364,8.45827596 27.2365093,8.7740274 26.8964484,9.07972233 L26.9099475,4.42184578 C27.2501258,4.11615085 27.5508632,3.80051369 27.8123943,3.47721987" id="Fill-13" fill="url(#linearGradient-9)"></path>
                                    <path d="M26.9099827,4.42189149 L26.8963662,9.07965377 C26.3748299,9.54853837 25.7606777,9.99399588 25.0540271,10.407684 L25.0676436,5.7499217 C25.7742943,5.33623361 26.388329,4.89077609 26.9099827,4.42189149" id="Fill-15" fill="url(#linearGradient-9)"></path>
                                    <path d="M25.0676084,5.74995599 L25.0539919,10.4077183 C24.9955348,10.4420018 24.9363733,10.4760568 24.8765076,10.5098832 C23.9059781,11.0589913 22.8310945,11.5140482 21.6876587,11.8750539 L21.7011578,7.21717739 C22.844711,6.85628595 23.9194773,6.40122904 24.8901241,5.85212095 C24.9498725,5.81829452 25.0090339,5.78423953 25.0676084,5.74995599" id="Fill-17" fill="url(#linearGradient-9)"></path>
                                    <path d="M21.7012048,7.21721167 L21.6875883,11.8749739 C20.8047445,12.1536992 19.8810513,12.3761994 18.93259,12.5427031 L18.9462065,7.88494083 C19.8945504,7.71843708 20.8183611,7.49593688 21.7012048,7.21721167" id="Fill-19" fill="url(#linearGradient-9)"></path>
                                    <path d="M18.946183,7.88496368 L18.9325665,12.542726 C18.3226402,12.6498049 17.7023841,12.7336853 17.0763761,12.7943672 L17.0899927,8.1366049 C17.7160006,8.07592302 18.3361393,7.99204262 18.946183,7.88496368" id="Fill-21" fill="url(#linearGradient-9)"></path>
                                    <path d="M17.0899457,8.13663918 L17.0763292,12.7944015 C16.5417633,12.8462839 16.0028541,12.8811388 15.462419,12.8990805 L15.4759182,8.24131827 C16.0163533,8.22337655 16.5552624,8.18852161 17.0899457,8.13663918" id="Fill-23" fill="url(#linearGradient-9)"></path>
                                    <g id="Group-27" transform="translate(13.968675, 8.228051)">
                                        <mask id="mask-21" fill="white">
                                            <use xlink:href="#path-20"></use>
                                        </mask>
                                        <g id="Clip-26"></g>
                                        <path d="M1.50726695,0.0133134429 L1.49365043,4.67107572 C0.997469019,4.6876461 0.499879002,4.68981739 0.00311067126,4.67781815 L0.0166098107,0.0200558732 C0.513378141,0.0320551135 1.01096816,0.029769544 1.50726695,0.0133134429" id="Fill-25" fill="url(#linearGradient-9)" mask="url(#mask-21)"></path>
                                    </g>
                                    <path d="M13.9853432,8.24808355 L13.9717267,12.9058458 C13.4925659,12.8943037 13.0141095,12.869391 12.5382355,12.831222 L12.551852,8.17345971 C13.0276086,8.21162872 13.5061824,8.23642715 13.9853432,8.24808355" id="Fill-28" fill="url(#linearGradient-9)"></path>
                                    <path d="M12.5518168,8.17342542 L12.5382002,12.8311877 C12.0633827,12.793133 11.5910302,12.7418219 11.1232557,12.6772546 L11.1368722,8.01949231 C11.6046467,8.08405965 12.0768818,8.13537069 12.5518168,8.17342542" id="Fill-30" fill="url(#linearGradient-9)"></path>
                                    <path d="M11.1368722,8.01948088 L11.1232557,12.6772432 C10.6368171,12.6101617 10.1550739,12.5286811 9.68049112,12.4329158 L9.69399026,7.77515349 C10.1686904,7.87091886 10.6503162,7.95239941 11.1368722,8.01948088" id="Fill-32" fill="url(#linearGradient-9)"></path>
                                    <path d="M9.694002,7.77515349 L9.68038547,12.4329158 C9.16530527,12.3290366 8.65844193,12.2082443 8.1623779,12.070653 L8.17599442,7.41289071 C8.67194107,7.550482 9.17892179,7.67127435 9.694002,7.77515349" id="Fill-34" fill="url(#linearGradient-9)"></path>
                                    <path d="M8.17599442,7.41291357 L8.1623779,12.0706758 C7.55538616,11.9023436 6.96471077,11.7086416 6.39528186,11.4897983 L6.40889838,6.83203606 C6.9783273,7.05087934 7.56900269,7.24446709 8.17599442,7.41291357" id="Fill-36" fill="url(#linearGradient-9)"></path>
                                    <g id="Group-40">
                                        <mask id="mask-23" fill="white">
                                            <use xlink:href="#path-22"></use>
                                        </mask>
                                        <g id="Clip-39"></g>
                                        <path d="M6.40886317,6.83202463 L6.39524664,11.4897869 C5.65619811,11.2056906 4.95283425,10.8790827 4.29607177,10.5099632 C1.42685904,8.89726531 -0.0061626506,6.78037076 5.86919106e-05,4.66679027 L0.0135578313,0.00891372141 C0.00745387263,2.12260848 1.44047556,4.23950304 4.3096883,5.85220094 C4.96645077,6.22132043 5.66969725,6.54792833 6.40886317,6.83202463" id="Fill-38" fill="url(#linearGradient-9)" mask="url(#mask-23)"></path>
                                    </g>
                                </g>
                                <path d="M24.8222528,2.40371069 C30.5233502,5.60819353 30.5541048,10.8043217 24.8901006,14.0088046 C19.2252748,17.2137445 10.0107622,17.2134017 4.30966482,14.0089189 C-1.3921369,10.8040932 -1.42218716,5.60830781 4.24263866,2.40336785 C9.90664279,-0.801114998 19.120451,-0.801114998 24.8222528,2.40371069" id="Fill-42" fill="#6FEDFF"></path>
                            </g>
                            <g id="Page-1-Copy" transform="translate(0.000000, 33.513622)">
                                <g id="Group-41" transform="translate(0.000000, 8.156741)">
                                    <g id="Group-3" transform="translate(28.993804, 0.000000)">
                                        <mask id="mask-25" fill="white">
                                            <use xlink:href="#path-24"></use>
                                        </mask>
                                        <g id="Clip-2"></g>
                                        <path d="M0.138194372,0.090428561 L0.112508657,4.74819084 C0.112287229,4.78967392 0.111180086,4.83115701 0.108744372,4.8726401 L0.134430086,0.214877825 C0.136644372,0.173394737 0.137972943,0.131911649 0.138194372,0.090428561" id="Fill-1" fill="url(#linearGradient-9)" mask="url(#mask-25)"></path>
                                    </g>
                                    <g id="Group-6" transform="translate(28.993804, 0.114278)">
                                        <mask id="mask-27" fill="white">
                                            <use xlink:href="#path-26"></use>
                                        </mask>
                                        <g id="Clip-5"></g>
                                        <path d="M0.218994991,0.100599346 L0.193309277,4.75836162 C0.178252134,5.02988729 0.118244991,5.30129868 0.0132878485,5.57133872 L0.0389735628,0.913462171 C0.143709277,0.643422124 0.20371642,0.372125013 0.218994991,0.100599346" id="Fill-4" fill="url(#linearGradient-9)" mask="url(#mask-27)"></path>
                                    </g>
                                    <path d="M29.0207082,1.02778636 L29.0070916,5.68554864 C28.9520386,5.95307456 28.8737436,6.21922914 28.7719718,6.48321242 L28.7855884,1.82545015 C28.8872428,1.56146686 28.9656551,1.29531228 29.0207082,1.02778636" id="Fill-7" fill="url(#linearGradient-9)"></path>
                                    <path d="M28.7855884,1.82540444 L28.7719718,6.48316671 C28.6675002,6.75446382 28.5382607,7.02336109 28.3843705,7.28860144 L28.397987,2.63083916 C28.5518772,2.36559881 28.6809994,2.09670155 28.7855884,1.82540444" id="Fill-9" fill="url(#linearGradient-9)"></path>
                                    <path d="M28.3979635,2.63082774 L28.384347,7.28859001 C28.2180141,7.57542899 28.0228048,7.85803967 27.7988365,8.13505071 L27.812453,3.47717416 C28.0364213,3.2002774 28.2316306,2.91766672 28.3979635,2.63082774" id="Fill-11" fill="url(#linearGradient-9)"></path>
                                    <path d="M27.8123943,3.47721987 L27.7987778,8.13498214 C27.537364,8.45827596 27.2365093,8.7740274 26.8964484,9.07972233 L26.9099475,4.42184578 C27.2501258,4.11615085 27.5508632,3.80051369 27.8123943,3.47721987" id="Fill-13" fill="url(#linearGradient-9)"></path>
                                    <path d="M26.9099827,4.42189149 L26.8963662,9.07965377 C26.3748299,9.54853837 25.7606777,9.99399588 25.0540271,10.407684 L25.0676436,5.7499217 C25.7742943,5.33623361 26.388329,4.89077609 26.9099827,4.42189149" id="Fill-15" fill="url(#linearGradient-9)"></path>
                                    <path d="M25.0676084,5.74995599 L25.0539919,10.4077183 C24.9955348,10.4420018 24.9363733,10.4760568 24.8765076,10.5098832 C23.9059781,11.0589913 22.8310945,11.5140482 21.6876587,11.8750539 L21.7011578,7.21717739 C22.844711,6.85628595 23.9194773,6.40122904 24.8901241,5.85212095 C24.9498725,5.81829452 25.0090339,5.78423953 25.0676084,5.74995599" id="Fill-17" fill="url(#linearGradient-9)"></path>
                                    <path d="M21.7012048,7.21721167 L21.6875883,11.8749739 C20.8047445,12.1536992 19.8810513,12.3761994 18.93259,12.5427031 L18.9462065,7.88494083 C19.8945504,7.71843708 20.8183611,7.49593688 21.7012048,7.21721167" id="Fill-19" fill="url(#linearGradient-9)"></path>
                                    <path d="M18.946183,7.88496368 L18.9325665,12.542726 C18.3226402,12.6498049 17.7023841,12.7336853 17.0763761,12.7943672 L17.0899927,8.1366049 C17.7160006,8.07592302 18.3361393,7.99204262 18.946183,7.88496368" id="Fill-21" fill="url(#linearGradient-9)"></path>
                                    <path d="M17.0899457,8.13663918 L17.0763292,12.7944015 C16.5417633,12.8462839 16.0028541,12.8811388 15.462419,12.8990805 L15.4759182,8.24131827 C16.0163533,8.22337655 16.5552624,8.18852161 17.0899457,8.13663918" id="Fill-23" fill="url(#linearGradient-9)"></path>
                                    <g id="Group-27" transform="translate(13.968675, 8.228051)">
                                        <mask id="mask-29" fill="white">
                                            <use xlink:href="#path-28"></use>
                                        </mask>
                                        <g id="Clip-26"></g>
                                        <path d="M1.50726695,0.0133134429 L1.49365043,4.67107572 C0.997469019,4.6876461 0.499879002,4.68981739 0.00311067126,4.67781815 L0.0166098107,0.0200558732 C0.513378141,0.0320551135 1.01096816,0.029769544 1.50726695,0.0133134429" id="Fill-25" fill="url(#linearGradient-9)" mask="url(#mask-29)"></path>
                                    </g>
                                    <path d="M13.9853432,8.24808355 L13.9717267,12.9058458 C13.4925659,12.8943037 13.0141095,12.869391 12.5382355,12.831222 L12.551852,8.17345971 C13.0276086,8.21162872 13.5061824,8.23642715 13.9853432,8.24808355" id="Fill-28" fill="url(#linearGradient-9)"></path>
                                    <path d="M12.5518168,8.17342542 L12.5382002,12.8311877 C12.0633827,12.793133 11.5910302,12.7418219 11.1232557,12.6772546 L11.1368722,8.01949231 C11.6046467,8.08405965 12.0768818,8.13537069 12.5518168,8.17342542" id="Fill-30" fill="url(#linearGradient-9)"></path>
                                    <path d="M11.1368722,8.01948088 L11.1232557,12.6772432 C10.6368171,12.6101617 10.1550739,12.5286811 9.68049112,12.4329158 L9.69399026,7.77515349 C10.1686904,7.87091886 10.6503162,7.95239941 11.1368722,8.01948088" id="Fill-32" fill="url(#linearGradient-9)"></path>
                                    <path d="M9.694002,7.77515349 L9.68038547,12.4329158 C9.16530527,12.3290366 8.65844193,12.2082443 8.1623779,12.070653 L8.17599442,7.41289071 C8.67194107,7.550482 9.17892179,7.67127435 9.694002,7.77515349" id="Fill-34" fill="url(#linearGradient-9)"></path>
                                    <path d="M8.17599442,7.41291357 L8.1623779,12.0706758 C7.55538616,11.9023436 6.96471077,11.7086416 6.39528186,11.4897983 L6.40889838,6.83203606 C6.9783273,7.05087934 7.56900269,7.24446709 8.17599442,7.41291357" id="Fill-36" fill="url(#linearGradient-9)"></path>
                                    <g id="Group-40">
                                        <mask id="mask-31" fill="white">
                                            <use xlink:href="#path-30"></use>
                                        </mask>
                                        <g id="Clip-39"></g>
                                        <path d="M6.40886317,6.83202463 L6.39524664,11.4897869 C5.65619811,11.2056906 4.95283425,10.8790827 4.29607177,10.5099632 C1.42685904,8.89726531 -0.0061626506,6.78037076 5.86919106e-05,4.66679027 L0.0135578313,0.00891372141 C0.00745387263,2.12260848 1.44047556,4.23950304 4.3096883,5.85220094 C4.96645077,6.22132043 5.66969725,6.54792833 6.40886317,6.83202463" id="Fill-38" fill="url(#linearGradient-9)" mask="url(#mask-31)"></path>
                                    </g>
                                </g>
                                <path d="M24.8222528,2.40371069 C30.5233502,5.60819353 30.5541048,10.8043217 24.8901006,14.0088046 C19.2252748,17.2137445 10.0107622,17.2134017 4.30966482,14.0089189 C-1.3921369,10.8040932 -1.42218716,5.60830781 4.24263866,2.40336785 C9.90664279,-0.801114998 19.120451,-0.801114998 24.8222528,2.40371069" id="Fill-42" fill="#6FEDFF"></path>
                            </g>
                            <g id="Page-1-Copy" transform="translate(0.000000, 26.937099)">
                                <g id="Group-41" transform="translate(0.000000, 8.156741)">
                                    <g id="Group-3" transform="translate(28.993804, 0.000000)">
                                        <mask id="mask-33" fill="white">
                                            <use xlink:href="#path-32"></use>
                                        </mask>
                                        <g id="Clip-2"></g>
                                        <path d="M0.138194372,0.090428561 L0.112508657,4.74819084 C0.112287229,4.78967392 0.111180086,4.83115701 0.108744372,4.8726401 L0.134430086,0.214877825 C0.136644372,0.173394737 0.137972943,0.131911649 0.138194372,0.090428561" id="Fill-1" fill="url(#linearGradient-9)" mask="url(#mask-33)"></path>
                                    </g>
                                    <g id="Group-6" transform="translate(28.993804, 0.114278)">
                                        <mask id="mask-35" fill="white">
                                            <use xlink:href="#path-34"></use>
                                        </mask>
                                        <g id="Clip-5"></g>
                                        <path d="M0.218994991,0.100599346 L0.193309277,4.75836162 C0.178252134,5.02988729 0.118244991,5.30129868 0.0132878485,5.57133872 L0.0389735628,0.913462171 C0.143709277,0.643422124 0.20371642,0.372125013 0.218994991,0.100599346" id="Fill-4" fill="url(#linearGradient-9)" mask="url(#mask-35)"></path>
                                    </g>
                                    <path d="M29.0207082,1.02778636 L29.0070916,5.68554864 C28.9520386,5.95307456 28.8737436,6.21922914 28.7719718,6.48321242 L28.7855884,1.82545015 C28.8872428,1.56146686 28.9656551,1.29531228 29.0207082,1.02778636" id="Fill-7" fill="url(#linearGradient-9)"></path>
                                    <path d="M28.7855884,1.82540444 L28.7719718,6.48316671 C28.6675002,6.75446382 28.5382607,7.02336109 28.3843705,7.28860144 L28.397987,2.63083916 C28.5518772,2.36559881 28.6809994,2.09670155 28.7855884,1.82540444" id="Fill-9" fill="url(#linearGradient-9)"></path>
                                    <path d="M28.3979635,2.63082774 L28.384347,7.28859001 C28.2180141,7.57542899 28.0228048,7.85803967 27.7988365,8.13505071 L27.812453,3.47717416 C28.0364213,3.2002774 28.2316306,2.91766672 28.3979635,2.63082774" id="Fill-11" fill="url(#linearGradient-9)"></path>
                                    <path d="M27.8123943,3.47721987 L27.7987778,8.13498214 C27.537364,8.45827596 27.2365093,8.7740274 26.8964484,9.07972233 L26.9099475,4.42184578 C27.2501258,4.11615085 27.5508632,3.80051369 27.8123943,3.47721987" id="Fill-13" fill="url(#linearGradient-9)"></path>
                                    <path d="M26.9099827,4.42189149 L26.8963662,9.07965377 C26.3748299,9.54853837 25.7606777,9.99399588 25.0540271,10.407684 L25.0676436,5.7499217 C25.7742943,5.33623361 26.388329,4.89077609 26.9099827,4.42189149" id="Fill-15" fill="url(#linearGradient-9)"></path>
                                    <path d="M25.0676084,5.74995599 L25.0539919,10.4077183 C24.9955348,10.4420018 24.9363733,10.4760568 24.8765076,10.5098832 C23.9059781,11.0589913 22.8310945,11.5140482 21.6876587,11.8750539 L21.7011578,7.21717739 C22.844711,6.85628595 23.9194773,6.40122904 24.8901241,5.85212095 C24.9498725,5.81829452 25.0090339,5.78423953 25.0676084,5.74995599" id="Fill-17" fill="url(#linearGradient-9)"></path>
                                    <path d="M21.7012048,7.21721167 L21.6875883,11.8749739 C20.8047445,12.1536992 19.8810513,12.3761994 18.93259,12.5427031 L18.9462065,7.88494083 C19.8945504,7.71843708 20.8183611,7.49593688 21.7012048,7.21721167" id="Fill-19" fill="url(#linearGradient-9)"></path>
                                    <path d="M18.946183,7.88496368 L18.9325665,12.542726 C18.3226402,12.6498049 17.7023841,12.7336853 17.0763761,12.7943672 L17.0899927,8.1366049 C17.7160006,8.07592302 18.3361393,7.99204262 18.946183,7.88496368" id="Fill-21" fill="url(#linearGradient-9)"></path>
                                    <path d="M17.0899457,8.13663918 L17.0763292,12.7944015 C16.5417633,12.8462839 16.0028541,12.8811388 15.462419,12.8990805 L15.4759182,8.24131827 C16.0163533,8.22337655 16.5552624,8.18852161 17.0899457,8.13663918" id="Fill-23" fill="url(#linearGradient-9)"></path>
                                    <g id="Group-27" transform="translate(13.968675, 8.228051)">
                                        <mask id="mask-37" fill="white">
                                            <use xlink:href="#path-36"></use>
                                        </mask>
                                        <g id="Clip-26"></g>
                                        <path d="M1.50726695,0.0133134429 L1.49365043,4.67107572 C0.997469019,4.6876461 0.499879002,4.68981739 0.00311067126,4.67781815 L0.0166098107,0.0200558732 C0.513378141,0.0320551135 1.01096816,0.029769544 1.50726695,0.0133134429" id="Fill-25" fill="url(#linearGradient-9)" mask="url(#mask-37)"></path>
                                    </g>
                                    <path d="M13.9853432,8.24808355 L13.9717267,12.9058458 C13.4925659,12.8943037 13.0141095,12.869391 12.5382355,12.831222 L12.551852,8.17345971 C13.0276086,8.21162872 13.5061824,8.23642715 13.9853432,8.24808355" id="Fill-28" fill="url(#linearGradient-9)"></path>
                                    <path d="M12.5518168,8.17342542 L12.5382002,12.8311877 C12.0633827,12.793133 11.5910302,12.7418219 11.1232557,12.6772546 L11.1368722,8.01949231 C11.6046467,8.08405965 12.0768818,8.13537069 12.5518168,8.17342542" id="Fill-30" fill="url(#linearGradient-9)"></path>
                                    <path d="M11.1368722,8.01948088 L11.1232557,12.6772432 C10.6368171,12.6101617 10.1550739,12.5286811 9.68049112,12.4329158 L9.69399026,7.77515349 C10.1686904,7.87091886 10.6503162,7.95239941 11.1368722,8.01948088" id="Fill-32" fill="url(#linearGradient-9)"></path>
                                    <path d="M9.694002,7.77515349 L9.68038547,12.4329158 C9.16530527,12.3290366 8.65844193,12.2082443 8.1623779,12.070653 L8.17599442,7.41289071 C8.67194107,7.550482 9.17892179,7.67127435 9.694002,7.77515349" id="Fill-34" fill="url(#linearGradient-9)"></path>
                                    <path d="M8.17599442,7.41291357 L8.1623779,12.0706758 C7.55538616,11.9023436 6.96471077,11.7086416 6.39528186,11.4897983 L6.40889838,6.83203606 C6.9783273,7.05087934 7.56900269,7.24446709 8.17599442,7.41291357" id="Fill-36" fill="url(#linearGradient-9)"></path>
                                    <g id="Group-40">
                                        <mask id="mask-39" fill="white">
                                            <use xlink:href="#path-38"></use>
                                        </mask>
                                        <g id="Clip-39"></g>
                                        <path d="M6.40886317,6.83202463 L6.39524664,11.4897869 C5.65619811,11.2056906 4.95283425,10.8790827 4.29607177,10.5099632 C1.42685904,8.89726531 -0.0061626506,6.78037076 5.86919106e-05,4.66679027 L0.0135578313,0.00891372141 C0.00745387263,2.12260848 1.44047556,4.23950304 4.3096883,5.85220094 C4.96645077,6.22132043 5.66969725,6.54792833 6.40886317,6.83202463" id="Fill-38" fill="url(#linearGradient-9)" mask="url(#mask-39)"></path>
                                    </g>
                                </g>
                                <path d="M24.8222528,2.40371069 C30.5233502,5.60819353 30.5541048,10.8043217 24.8901006,14.0088046 C19.2252748,17.2137445 10.0107622,17.2134017 4.30966482,14.0089189 C-1.3921369,10.8040932 -1.42218716,5.60830781 4.24263866,2.40336785 C9.90664279,-0.801114998 19.120451,-0.801114998 24.8222528,2.40371069" id="Fill-42" fill="#6FEDFF"></path>
                            </g>
                            <g id="Page-1-Copy" transform="translate(0.000000, 20.360577)">
                                <g id="Group-41" transform="translate(0.000000, 8.156741)">
                                    <g id="Group-3" transform="translate(28.993804, 0.000000)">
                                        <mask id="mask-41" fill="white">
                                            <use xlink:href="#path-40"></use>
                                        </mask>
                                        <g id="Clip-2"></g>
                                        <path d="M0.138194372,0.090428561 L0.112508657,4.74819084 C0.112287229,4.78967392 0.111180086,4.83115701 0.108744372,4.8726401 L0.134430086,0.214877825 C0.136644372,0.173394737 0.137972943,0.131911649 0.138194372,0.090428561" id="Fill-1" fill="url(#linearGradient-9)" mask="url(#mask-41)"></path>
                                    </g>
                                    <g id="Group-6" transform="translate(28.993804, 0.114278)">
                                        <mask id="mask-43" fill="white">
                                            <use xlink:href="#path-42"></use>
                                        </mask>
                                        <g id="Clip-5"></g>
                                        <path d="M0.218994991,0.100599346 L0.193309277,4.75836162 C0.178252134,5.02988729 0.118244991,5.30129868 0.0132878485,5.57133872 L0.0389735628,0.913462171 C0.143709277,0.643422124 0.20371642,0.372125013 0.218994991,0.100599346" id="Fill-4" fill="url(#linearGradient-9)" mask="url(#mask-43)"></path>
                                    </g>
                                    <path d="M29.0207082,1.02778636 L29.0070916,5.68554864 C28.9520386,5.95307456 28.8737436,6.21922914 28.7719718,6.48321242 L28.7855884,1.82545015 C28.8872428,1.56146686 28.9656551,1.29531228 29.0207082,1.02778636" id="Fill-7" fill="url(#linearGradient-9)"></path>
                                    <path d="M28.7855884,1.82540444 L28.7719718,6.48316671 C28.6675002,6.75446382 28.5382607,7.02336109 28.3843705,7.28860144 L28.397987,2.63083916 C28.5518772,2.36559881 28.6809994,2.09670155 28.7855884,1.82540444" id="Fill-9" fill="url(#linearGradient-9)"></path>
                                    <path d="M28.3979635,2.63082774 L28.384347,7.28859001 C28.2180141,7.57542899 28.0228048,7.85803967 27.7988365,8.13505071 L27.812453,3.47717416 C28.0364213,3.2002774 28.2316306,2.91766672 28.3979635,2.63082774" id="Fill-11" fill="url(#linearGradient-9)"></path>
                                    <path d="M27.8123943,3.47721987 L27.7987778,8.13498214 C27.537364,8.45827596 27.2365093,8.7740274 26.8964484,9.07972233 L26.9099475,4.42184578 C27.2501258,4.11615085 27.5508632,3.80051369 27.8123943,3.47721987" id="Fill-13" fill="url(#linearGradient-9)"></path>
                                    <path d="M26.9099827,4.42189149 L26.8963662,9.07965377 C26.3748299,9.54853837 25.7606777,9.99399588 25.0540271,10.407684 L25.0676436,5.7499217 C25.7742943,5.33623361 26.388329,4.89077609 26.9099827,4.42189149" id="Fill-15" fill="url(#linearGradient-9)"></path>
                                    <path d="M25.0676084,5.74995599 L25.0539919,10.4077183 C24.9955348,10.4420018 24.9363733,10.4760568 24.8765076,10.5098832 C23.9059781,11.0589913 22.8310945,11.5140482 21.6876587,11.8750539 L21.7011578,7.21717739 C22.844711,6.85628595 23.9194773,6.40122904 24.8901241,5.85212095 C24.9498725,5.81829452 25.0090339,5.78423953 25.0676084,5.74995599" id="Fill-17" fill="url(#linearGradient-9)"></path>
                                    <path d="M21.7012048,7.21721167 L21.6875883,11.8749739 C20.8047445,12.1536992 19.8810513,12.3761994 18.93259,12.5427031 L18.9462065,7.88494083 C19.8945504,7.71843708 20.8183611,7.49593688 21.7012048,7.21721167" id="Fill-19" fill="url(#linearGradient-9)"></path>
                                    <path d="M18.946183,7.88496368 L18.9325665,12.542726 C18.3226402,12.6498049 17.7023841,12.7336853 17.0763761,12.7943672 L17.0899927,8.1366049 C17.7160006,8.07592302 18.3361393,7.99204262 18.946183,7.88496368" id="Fill-21" fill="url(#linearGradient-9)"></path>
                                    <path d="M17.0899457,8.13663918 L17.0763292,12.7944015 C16.5417633,12.8462839 16.0028541,12.8811388 15.462419,12.8990805 L15.4759182,8.24131827 C16.0163533,8.22337655 16.5552624,8.18852161 17.0899457,8.13663918" id="Fill-23" fill="url(#linearGradient-9)"></path>
                                    <g id="Group-27" transform="translate(13.968675, 8.228051)">
                                        <mask id="mask-45" fill="white">
                                            <use xlink:href="#path-44"></use>
                                        </mask>
                                        <g id="Clip-26"></g>
                                        <path d="M1.50726695,0.0133134429 L1.49365043,4.67107572 C0.997469019,4.6876461 0.499879002,4.68981739 0.00311067126,4.67781815 L0.0166098107,0.0200558732 C0.513378141,0.0320551135 1.01096816,0.029769544 1.50726695,0.0133134429" id="Fill-25" fill="url(#linearGradient-9)" mask="url(#mask-45)"></path>
                                    </g>
                                    <path d="M13.9853432,8.24808355 L13.9717267,12.9058458 C13.4925659,12.8943037 13.0141095,12.869391 12.5382355,12.831222 L12.551852,8.17345971 C13.0276086,8.21162872 13.5061824,8.23642715 13.9853432,8.24808355" id="Fill-28" fill="url(#linearGradient-9)"></path>
                                    <path d="M12.5518168,8.17342542 L12.5382002,12.8311877 C12.0633827,12.793133 11.5910302,12.7418219 11.1232557,12.6772546 L11.1368722,8.01949231 C11.6046467,8.08405965 12.0768818,8.13537069 12.5518168,8.17342542" id="Fill-30" fill="url(#linearGradient-9)"></path>
                                    <path d="M11.1368722,8.01948088 L11.1232557,12.6772432 C10.6368171,12.6101617 10.1550739,12.5286811 9.68049112,12.4329158 L9.69399026,7.77515349 C10.1686904,7.87091886 10.6503162,7.95239941 11.1368722,8.01948088" id="Fill-32" fill="url(#linearGradient-9)"></path>
                                    <path d="M9.694002,7.77515349 L9.68038547,12.4329158 C9.16530527,12.3290366 8.65844193,12.2082443 8.1623779,12.070653 L8.17599442,7.41289071 C8.67194107,7.550482 9.17892179,7.67127435 9.694002,7.77515349" id="Fill-34" fill="url(#linearGradient-9)"></path>
                                    <path d="M8.17599442,7.41291357 L8.1623779,12.0706758 C7.55538616,11.9023436 6.96471077,11.7086416 6.39528186,11.4897983 L6.40889838,6.83203606 C6.9783273,7.05087934 7.56900269,7.24446709 8.17599442,7.41291357" id="Fill-36" fill="url(#linearGradient-9)"></path>
                                    <g id="Group-40">
                                        <mask id="mask-47" fill="white">
                                            <use xlink:href="#path-46"></use>
                                        </mask>
                                        <g id="Clip-39"></g>
                                        <path d="M6.40886317,6.83202463 L6.39524664,11.4897869 C5.65619811,11.2056906 4.95283425,10.8790827 4.29607177,10.5099632 C1.42685904,8.89726531 -0.0061626506,6.78037076 5.86919106e-05,4.66679027 L0.0135578313,0.00891372141 C0.00745387263,2.12260848 1.44047556,4.23950304 4.3096883,5.85220094 C4.96645077,6.22132043 5.66969725,6.54792833 6.40886317,6.83202463" id="Fill-38" fill="url(#linearGradient-9)" mask="url(#mask-47)"></path>
                                    </g>
                                </g>
                                <path d="M24.8222528,2.40371069 C30.5233502,5.60819353 30.5541048,10.8043217 24.8901006,14.0088046 C19.2252748,17.2137445 10.0107622,17.2134017 4.30966482,14.0089189 C-1.3921369,10.8040932 -1.42218716,5.60830781 4.24263866,2.40336785 C9.90664279,-0.801114998 19.120451,-0.801114998 24.8222528,2.40371069" id="Fill-42" fill="#6FEDFF"></path>
                            </g>
                            <g id="Page-1-Copy" transform="translate(0.000000, 13.784054)">
                                <g id="Group-41" transform="translate(0.000000, 8.156741)">
                                    <g id="Group-3" transform="translate(28.993804, 0.000000)">
                                        <mask id="mask-49" fill="white">
                                            <use xlink:href="#path-48"></use>
                                        </mask>
                                        <g id="Clip-2"></g>
                                        <path d="M0.138194372,0.090428561 L0.112508657,4.74819084 C0.112287229,4.78967392 0.111180086,4.83115701 0.108744372,4.8726401 L0.134430086,0.214877825 C0.136644372,0.173394737 0.137972943,0.131911649 0.138194372,0.090428561" id="Fill-1" fill="url(#linearGradient-9)" mask="url(#mask-49)"></path>
                                    </g>
                                    <g id="Group-6" transform="translate(28.993804, 0.114278)">
                                        <mask id="mask-51" fill="white">
                                            <use xlink:href="#path-50"></use>
                                        </mask>
                                        <g id="Clip-5"></g>
                                        <path d="M0.218994991,0.100599346 L0.193309277,4.75836162 C0.178252134,5.02988729 0.118244991,5.30129868 0.0132878485,5.57133872 L0.0389735628,0.913462171 C0.143709277,0.643422124 0.20371642,0.372125013 0.218994991,0.100599346" id="Fill-4" fill="url(#linearGradient-9)" mask="url(#mask-51)"></path>
                                    </g>
                                    <path d="M29.0207082,1.02778636 L29.0070916,5.68554864 C28.9520386,5.95307456 28.8737436,6.21922914 28.7719718,6.48321242 L28.7855884,1.82545015 C28.8872428,1.56146686 28.9656551,1.29531228 29.0207082,1.02778636" id="Fill-7" fill="url(#linearGradient-9)"></path>
                                    <path d="M28.7855884,1.82540444 L28.7719718,6.48316671 C28.6675002,6.75446382 28.5382607,7.02336109 28.3843705,7.28860144 L28.397987,2.63083916 C28.5518772,2.36559881 28.6809994,2.09670155 28.7855884,1.82540444" id="Fill-9" fill="url(#linearGradient-9)"></path>
                                    <path d="M28.3979635,2.63082774 L28.384347,7.28859001 C28.2180141,7.57542899 28.0228048,7.85803967 27.7988365,8.13505071 L27.812453,3.47717416 C28.0364213,3.2002774 28.2316306,2.91766672 28.3979635,2.63082774" id="Fill-11" fill="url(#linearGradient-9)"></path>
                                    <path d="M27.8123943,3.47721987 L27.7987778,8.13498214 C27.537364,8.45827596 27.2365093,8.7740274 26.8964484,9.07972233 L26.9099475,4.42184578 C27.2501258,4.11615085 27.5508632,3.80051369 27.8123943,3.47721987" id="Fill-13" fill="url(#linearGradient-9)"></path>
                                    <path d="M26.9099827,4.42189149 L26.8963662,9.07965377 C26.3748299,9.54853837 25.7606777,9.99399588 25.0540271,10.407684 L25.0676436,5.7499217 C25.7742943,5.33623361 26.388329,4.89077609 26.9099827,4.42189149" id="Fill-15" fill="url(#linearGradient-9)"></path>
                                    <path d="M25.0676084,5.74995599 L25.0539919,10.4077183 C24.9955348,10.4420018 24.9363733,10.4760568 24.8765076,10.5098832 C23.9059781,11.0589913 22.8310945,11.5140482 21.6876587,11.8750539 L21.7011578,7.21717739 C22.844711,6.85628595 23.9194773,6.40122904 24.8901241,5.85212095 C24.9498725,5.81829452 25.0090339,5.78423953 25.0676084,5.74995599" id="Fill-17" fill="url(#linearGradient-9)"></path>
                                    <path d="M21.7012048,7.21721167 L21.6875883,11.8749739 C20.8047445,12.1536992 19.8810513,12.3761994 18.93259,12.5427031 L18.9462065,7.88494083 C19.8945504,7.71843708 20.8183611,7.49593688 21.7012048,7.21721167" id="Fill-19" fill="url(#linearGradient-9)"></path>
                                    <path d="M18.946183,7.88496368 L18.9325665,12.542726 C18.3226402,12.6498049 17.7023841,12.7336853 17.0763761,12.7943672 L17.0899927,8.1366049 C17.7160006,8.07592302 18.3361393,7.99204262 18.946183,7.88496368" id="Fill-21" fill="url(#linearGradient-9)"></path>
                                    <path d="M17.0899457,8.13663918 L17.0763292,12.7944015 C16.5417633,12.8462839 16.0028541,12.8811388 15.462419,12.8990805 L15.4759182,8.24131827 C16.0163533,8.22337655 16.5552624,8.18852161 17.0899457,8.13663918" id="Fill-23" fill="url(#linearGradient-9)"></path>
                                    <g id="Group-27" transform="translate(13.968675, 8.228051)">
                                        <mask id="mask-53" fill="white">
                                            <use xlink:href="#path-52"></use>
                                        </mask>
                                        <g id="Clip-26"></g>
                                        <path d="M1.50726695,0.0133134429 L1.49365043,4.67107572 C0.997469019,4.6876461 0.499879002,4.68981739 0.00311067126,4.67781815 L0.0166098107,0.0200558732 C0.513378141,0.0320551135 1.01096816,0.029769544 1.50726695,0.0133134429" id="Fill-25" fill="url(#linearGradient-9)" mask="url(#mask-53)"></path>
                                    </g>
                                    <path d="M13.9853432,8.24808355 L13.9717267,12.9058458 C13.4925659,12.8943037 13.0141095,12.869391 12.5382355,12.831222 L12.551852,8.17345971 C13.0276086,8.21162872 13.5061824,8.23642715 13.9853432,8.24808355" id="Fill-28" fill="url(#linearGradient-9)"></path>
                                    <path d="M12.5518168,8.17342542 L12.5382002,12.8311877 C12.0633827,12.793133 11.5910302,12.7418219 11.1232557,12.6772546 L11.1368722,8.01949231 C11.6046467,8.08405965 12.0768818,8.13537069 12.5518168,8.17342542" id="Fill-30" fill="url(#linearGradient-9)"></path>
                                    <path d="M11.1368722,8.01948088 L11.1232557,12.6772432 C10.6368171,12.6101617 10.1550739,12.5286811 9.68049112,12.4329158 L9.69399026,7.77515349 C10.1686904,7.87091886 10.6503162,7.95239941 11.1368722,8.01948088" id="Fill-32" fill="url(#linearGradient-9)"></path>
                                    <path d="M9.694002,7.77515349 L9.68038547,12.4329158 C9.16530527,12.3290366 8.65844193,12.2082443 8.1623779,12.070653 L8.17599442,7.41289071 C8.67194107,7.550482 9.17892179,7.67127435 9.694002,7.77515349" id="Fill-34" fill="url(#linearGradient-9)"></path>
                                    <path d="M8.17599442,7.41291357 L8.1623779,12.0706758 C7.55538616,11.9023436 6.96471077,11.7086416 6.39528186,11.4897983 L6.40889838,6.83203606 C6.9783273,7.05087934 7.56900269,7.24446709 8.17599442,7.41291357" id="Fill-36" fill="url(#linearGradient-9)"></path>
                                    <g id="Group-40">
                                        <mask id="mask-55" fill="white">
                                            <use xlink:href="#path-54"></use>
                                        </mask>
                                        <g id="Clip-39"></g>
                                        <path d="M6.40886317,6.83202463 L6.39524664,11.4897869 C5.65619811,11.2056906 4.95283425,10.8790827 4.29607177,10.5099632 C1.42685904,8.89726531 -0.0061626506,6.78037076 5.86919106e-05,4.66679027 L0.0135578313,0.00891372141 C0.00745387263,2.12260848 1.44047556,4.23950304 4.3096883,5.85220094 C4.96645077,6.22132043 5.66969725,6.54792833 6.40886317,6.83202463" id="Fill-38" fill="url(#linearGradient-9)" mask="url(#mask-55)"></path>
                                    </g>
                                </g>
                                <path d="M24.8222528,2.40371069 C30.5233502,5.60819353 30.5541048,10.8043217 24.8901006,14.0088046 C19.2252748,17.2137445 10.0107622,17.2134017 4.30966482,14.0089189 C-1.3921369,10.8040932 -1.42218716,5.60830781 4.24263866,2.40336785 C9.90664279,-0.801114998 19.120451,-0.801114998 24.8222528,2.40371069" id="Fill-42" fill="#6FEDFF"></path>
                            </g>
                            <g id="Page-1-Copy" transform="translate(0.000000, 7.207532)">
                                <g id="Group-41" transform="translate(0.000000, 8.156741)">
                                    <g id="Group-3" transform="translate(28.993804, 0.000000)">
                                        <mask id="mask-57" fill="white">
                                            <use xlink:href="#path-56"></use>
                                        </mask>
                                        <g id="Clip-2"></g>
                                        <path d="M0.138194372,0.090428561 L0.112508657,4.74819084 C0.112287229,4.78967392 0.111180086,4.83115701 0.108744372,4.8726401 L0.134430086,0.214877825 C0.136644372,0.173394737 0.137972943,0.131911649 0.138194372,0.090428561" id="Fill-1" fill="url(#linearGradient-9)" mask="url(#mask-57)"></path>
                                    </g>
                                    <g id="Group-6" transform="translate(28.993804, 0.114278)">
                                        <mask id="mask-59" fill="white">
                                            <use xlink:href="#path-58"></use>
                                        </mask>
                                        <g id="Clip-5"></g>
                                        <path d="M0.218994991,0.100599346 L0.193309277,4.75836162 C0.178252134,5.02988729 0.118244991,5.30129868 0.0132878485,5.57133872 L0.0389735628,0.913462171 C0.143709277,0.643422124 0.20371642,0.372125013 0.218994991,0.100599346" id="Fill-4" fill="url(#linearGradient-9)" mask="url(#mask-59)"></path>
                                    </g>
                                    <path d="M29.0207082,1.02778636 L29.0070916,5.68554864 C28.9520386,5.95307456 28.8737436,6.21922914 28.7719718,6.48321242 L28.7855884,1.82545015 C28.8872428,1.56146686 28.9656551,1.29531228 29.0207082,1.02778636" id="Fill-7" fill="url(#linearGradient-9)"></path>
                                    <path d="M28.7855884,1.82540444 L28.7719718,6.48316671 C28.6675002,6.75446382 28.5382607,7.02336109 28.3843705,7.28860144 L28.397987,2.63083916 C28.5518772,2.36559881 28.6809994,2.09670155 28.7855884,1.82540444" id="Fill-9" fill="url(#linearGradient-9)"></path>
                                    <path d="M28.3979635,2.63082774 L28.384347,7.28859001 C28.2180141,7.57542899 28.0228048,7.85803967 27.7988365,8.13505071 L27.812453,3.47717416 C28.0364213,3.2002774 28.2316306,2.91766672 28.3979635,2.63082774" id="Fill-11" fill="url(#linearGradient-9)"></path>
                                    <path d="M27.8123943,3.47721987 L27.7987778,8.13498214 C27.537364,8.45827596 27.2365093,8.7740274 26.8964484,9.07972233 L26.9099475,4.42184578 C27.2501258,4.11615085 27.5508632,3.80051369 27.8123943,3.47721987" id="Fill-13" fill="url(#linearGradient-9)"></path>
                                    <path d="M26.9099827,4.42189149 L26.8963662,9.07965377 C26.3748299,9.54853837 25.7606777,9.99399588 25.0540271,10.407684 L25.0676436,5.7499217 C25.7742943,5.33623361 26.388329,4.89077609 26.9099827,4.42189149" id="Fill-15" fill="url(#linearGradient-9)"></path>
                                    <path d="M25.0676084,5.74995599 L25.0539919,10.4077183 C24.9955348,10.4420018 24.9363733,10.4760568 24.8765076,10.5098832 C23.9059781,11.0589913 22.8310945,11.5140482 21.6876587,11.8750539 L21.7011578,7.21717739 C22.844711,6.85628595 23.9194773,6.40122904 24.8901241,5.85212095 C24.9498725,5.81829452 25.0090339,5.78423953 25.0676084,5.74995599" id="Fill-17" fill="url(#linearGradient-9)"></path>
                                    <path d="M21.7012048,7.21721167 L21.6875883,11.8749739 C20.8047445,12.1536992 19.8810513,12.3761994 18.93259,12.5427031 L18.9462065,7.88494083 C19.8945504,7.71843708 20.8183611,7.49593688 21.7012048,7.21721167" id="Fill-19" fill="url(#linearGradient-9)"></path>
                                    <path d="M18.946183,7.88496368 L18.9325665,12.542726 C18.3226402,12.6498049 17.7023841,12.7336853 17.0763761,12.7943672 L17.0899927,8.1366049 C17.7160006,8.07592302 18.3361393,7.99204262 18.946183,7.88496368" id="Fill-21" fill="url(#linearGradient-9)"></path>
                                    <path d="M17.0899457,8.13663918 L17.0763292,12.7944015 C16.5417633,12.8462839 16.0028541,12.8811388 15.462419,12.8990805 L15.4759182,8.24131827 C16.0163533,8.22337655 16.5552624,8.18852161 17.0899457,8.13663918" id="Fill-23" fill="url(#linearGradient-9)"></path>
                                    <g id="Group-27" transform="translate(13.968675, 8.228051)">
                                        <mask id="mask-61" fill="white">
                                            <use xlink:href="#path-60"></use>
                                        </mask>
                                        <g id="Clip-26"></g>
                                        <path d="M1.50726695,0.0133134429 L1.49365043,4.67107572 C0.997469019,4.6876461 0.499879002,4.68981739 0.00311067126,4.67781815 L0.0166098107,0.0200558732 C0.513378141,0.0320551135 1.01096816,0.029769544 1.50726695,0.0133134429" id="Fill-25" fill="url(#linearGradient-9)" mask="url(#mask-61)"></path>
                                    </g>
                                    <path d="M13.9853432,8.24808355 L13.9717267,12.9058458 C13.4925659,12.8943037 13.0141095,12.869391 12.5382355,12.831222 L12.551852,8.17345971 C13.0276086,8.21162872 13.5061824,8.23642715 13.9853432,8.24808355" id="Fill-28" fill="url(#linearGradient-9)"></path>
                                    <path d="M12.5518168,8.17342542 L12.5382002,12.8311877 C12.0633827,12.793133 11.5910302,12.7418219 11.1232557,12.6772546 L11.1368722,8.01949231 C11.6046467,8.08405965 12.0768818,8.13537069 12.5518168,8.17342542" id="Fill-30" fill="url(#linearGradient-9)"></path>
                                    <path d="M11.1368722,8.01948088 L11.1232557,12.6772432 C10.6368171,12.6101617 10.1550739,12.5286811 9.68049112,12.4329158 L9.69399026,7.77515349 C10.1686904,7.87091886 10.6503162,7.95239941 11.1368722,8.01948088" id="Fill-32" fill="url(#linearGradient-9)"></path>
                                    <path d="M9.694002,7.77515349 L9.68038547,12.4329158 C9.16530527,12.3290366 8.65844193,12.2082443 8.1623779,12.070653 L8.17599442,7.41289071 C8.67194107,7.550482 9.17892179,7.67127435 9.694002,7.77515349" id="Fill-34" fill="url(#linearGradient-9)"></path>
                                    <path d="M8.17599442,7.41291357 L8.1623779,12.0706758 C7.55538616,11.9023436 6.96471077,11.7086416 6.39528186,11.4897983 L6.40889838,6.83203606 C6.9783273,7.05087934 7.56900269,7.24446709 8.17599442,7.41291357" id="Fill-36" fill="url(#linearGradient-9)"></path>
                                    <g id="Group-40">
                                        <mask id="mask-63" fill="white">
                                            <use xlink:href="#path-62"></use>
                                        </mask>
                                        <g id="Clip-39"></g>
                                        <path d="M6.40886317,6.83202463 L6.39524664,11.4897869 C5.65619811,11.2056906 4.95283425,10.8790827 4.29607177,10.5099632 C1.42685904,8.89726531 -0.0061626506,6.78037076 5.86919106e-05,4.66679027 L0.0135578313,0.00891372141 C0.00745387263,2.12260848 1.44047556,4.23950304 4.3096883,5.85220094 C4.96645077,6.22132043 5.66969725,6.54792833 6.40886317,6.83202463" id="Fill-38" fill="url(#linearGradient-9)" mask="url(#mask-63)"></path>
                                    </g>
                                </g>
                                <path d="M24.8222528,2.40371069 C30.5233502,5.60819353 30.5541048,10.8043217 24.8901006,14.0088046 C19.2252748,17.2137445 10.0107622,17.2134017 4.30966482,14.0089189 C-1.3921369,10.8040932 -1.42218716,5.60830781 4.24263866,2.40336785 C9.90664279,-0.801114998 19.120451,-0.801114998 24.8222528,2.40371069" id="Fill-42" fill="#6FEDFF"></path>
                            </g>
                            <g id="Page-1-Copy" transform="translate(0.000000, 0.631010)">
                                <g id="Group-41" transform="translate(0.000000, 8.156741)">
                                    <g id="Group-3" transform="translate(28.993804, 0.000000)">
                                        <mask id="mask-65" fill="white">
                                            <use xlink:href="#path-64"></use>
                                        </mask>
                                        <g id="Clip-2"></g>
                                        <path d="M0.138194372,0.090428561 L0.112508657,4.74819084 C0.112287229,4.78967392 0.111180086,4.83115701 0.108744372,4.8726401 L0.134430086,0.214877825 C0.136644372,0.173394737 0.137972943,0.131911649 0.138194372,0.090428561" id="Fill-1" fill="url(#linearGradient-9)" mask="url(#mask-65)"></path>
                                    </g>
                                    <g id="Group-6" transform="translate(28.993804, 0.114278)">
                                        <mask id="mask-67" fill="white">
                                            <use xlink:href="#path-66"></use>
                                        </mask>
                                        <g id="Clip-5"></g>
                                        <path d="M0.218994991,0.100599346 L0.193309277,4.75836162 C0.178252134,5.02988729 0.118244991,5.30129868 0.0132878485,5.57133872 L0.0389735628,0.913462171 C0.143709277,0.643422124 0.20371642,0.372125013 0.218994991,0.100599346" id="Fill-4" fill="url(#linearGradient-9)" mask="url(#mask-67)"></path>
                                    </g>
                                    <path d="M29.0207082,1.02778636 L29.0070916,5.68554864 C28.9520386,5.95307456 28.8737436,6.21922914 28.7719718,6.48321242 L28.7855884,1.82545015 C28.8872428,1.56146686 28.9656551,1.29531228 29.0207082,1.02778636" id="Fill-7" fill="url(#linearGradient-9)"></path>
                                    <path d="M28.7855884,1.82540444 L28.7719718,6.48316671 C28.6675002,6.75446382 28.5382607,7.02336109 28.3843705,7.28860144 L28.397987,2.63083916 C28.5518772,2.36559881 28.6809994,2.09670155 28.7855884,1.82540444" id="Fill-9" fill="url(#linearGradient-9)"></path>
                                    <path d="M28.3979635,2.63082774 L28.384347,7.28859001 C28.2180141,7.57542899 28.0228048,7.85803967 27.7988365,8.13505071 L27.812453,3.47717416 C28.0364213,3.2002774 28.2316306,2.91766672 28.3979635,2.63082774" id="Fill-11" fill="url(#linearGradient-9)"></path>
                                    <path d="M27.8123943,3.47721987 L27.7987778,8.13498214 C27.537364,8.45827596 27.2365093,8.7740274 26.8964484,9.07972233 L26.9099475,4.42184578 C27.2501258,4.11615085 27.5508632,3.80051369 27.8123943,3.47721987" id="Fill-13" fill="url(#linearGradient-9)"></path>
                                    <path d="M26.9099827,4.42189149 L26.8963662,9.07965377 C26.3748299,9.54853837 25.7606777,9.99399588 25.0540271,10.407684 L25.0676436,5.7499217 C25.7742943,5.33623361 26.388329,4.89077609 26.9099827,4.42189149" id="Fill-15" fill="url(#linearGradient-9)"></path>
                                    <path d="M25.0676084,5.74995599 L25.0539919,10.4077183 C24.9955348,10.4420018 24.9363733,10.4760568 24.8765076,10.5098832 C23.9059781,11.0589913 22.8310945,11.5140482 21.6876587,11.8750539 L21.7011578,7.21717739 C22.844711,6.85628595 23.9194773,6.40122904 24.8901241,5.85212095 C24.9498725,5.81829452 25.0090339,5.78423953 25.0676084,5.74995599" id="Fill-17" fill="url(#linearGradient-9)"></path>
                                    <path d="M21.7012048,7.21721167 L21.6875883,11.8749739 C20.8047445,12.1536992 19.8810513,12.3761994 18.93259,12.5427031 L18.9462065,7.88494083 C19.8945504,7.71843708 20.8183611,7.49593688 21.7012048,7.21721167" id="Fill-19" fill="url(#linearGradient-9)"></path>
                                    <path d="M18.946183,7.88496368 L18.9325665,12.542726 C18.3226402,12.6498049 17.7023841,12.7336853 17.0763761,12.7943672 L17.0899927,8.1366049 C17.7160006,8.07592302 18.3361393,7.99204262 18.946183,7.88496368" id="Fill-21" fill="url(#linearGradient-9)"></path>
                                    <path d="M17.0899457,8.13663918 L17.0763292,12.7944015 C16.5417633,12.8462839 16.0028541,12.8811388 15.462419,12.8990805 L15.4759182,8.24131827 C16.0163533,8.22337655 16.5552624,8.18852161 17.0899457,8.13663918" id="Fill-23" fill="url(#linearGradient-9)"></path>
                                    <g id="Group-27" transform="translate(13.968675, 8.228051)">
                                        <mask id="mask-69" fill="white">
                                            <use xlink:href="#path-68"></use>
                                        </mask>
                                        <g id="Clip-26"></g>
                                        <path d="M1.50726695,0.0133134429 L1.49365043,4.67107572 C0.997469019,4.6876461 0.499879002,4.68981739 0.00311067126,4.67781815 L0.0166098107,0.0200558732 C0.513378141,0.0320551135 1.01096816,0.029769544 1.50726695,0.0133134429" id="Fill-25" fill="url(#linearGradient-9)" mask="url(#mask-69)"></path>
                                    </g>
                                    <path d="M13.9853432,8.24808355 L13.9717267,12.9058458 C13.4925659,12.8943037 13.0141095,12.869391 12.5382355,12.831222 L12.551852,8.17345971 C13.0276086,8.21162872 13.5061824,8.23642715 13.9853432,8.24808355" id="Fill-28" fill="url(#linearGradient-9)"></path>
                                    <path d="M12.5518168,8.17342542 L12.5382002,12.8311877 C12.0633827,12.793133 11.5910302,12.7418219 11.1232557,12.6772546 L11.1368722,8.01949231 C11.6046467,8.08405965 12.0768818,8.13537069 12.5518168,8.17342542" id="Fill-30" fill="url(#linearGradient-9)"></path>
                                    <path d="M11.1368722,8.01948088 L11.1232557,12.6772432 C10.6368171,12.6101617 10.1550739,12.5286811 9.68049112,12.4329158 L9.69399026,7.77515349 C10.1686904,7.87091886 10.6503162,7.95239941 11.1368722,8.01948088" id="Fill-32" fill="url(#linearGradient-9)"></path>
                                    <path d="M9.694002,7.77515349 L9.68038547,12.4329158 C9.16530527,12.3290366 8.65844193,12.2082443 8.1623779,12.070653 L8.17599442,7.41289071 C8.67194107,7.550482 9.17892179,7.67127435 9.694002,7.77515349" id="Fill-34" fill="url(#linearGradient-9)"></path>
                                    <path d="M8.17599442,7.41291357 L8.1623779,12.0706758 C7.55538616,11.9023436 6.96471077,11.7086416 6.39528186,11.4897983 L6.40889838,6.83203606 C6.9783273,7.05087934 7.56900269,7.24446709 8.17599442,7.41291357" id="Fill-36" fill="url(#linearGradient-9)"></path>
                                    <g id="Group-40">
                                        <mask id="mask-71" fill="white">
                                            <use xlink:href="#path-70"></use>
                                        </mask>
                                        <g id="Clip-39"></g>
                                        <path d="M6.40886317,6.83202463 L6.39524664,11.4897869 C5.65619811,11.2056906 4.95283425,10.8790827 4.29607177,10.5099632 C1.42685904,8.89726531 -0.0061626506,6.78037076 5.86919106e-05,4.66679027 L0.0135578313,0.00891372141 C0.00745387263,2.12260848 1.44047556,4.23950304 4.3096883,5.85220094 C4.96645077,6.22132043 5.66969725,6.54792833 6.40886317,6.83202463" id="Fill-38" fill="url(#linearGradient-9)" mask="url(#mask-71)"></path>
                                    </g>
                                </g>
                                <path d="M24.8222528,2.40371069 C30.5233502,5.60819353 30.5541048,10.8043217 24.8901006,14.0088046 C19.2252748,17.2137445 10.0107622,17.2134017 4.30966482,14.0089189 C-1.3921369,10.8040932 -1.42218716,5.60830781 4.24263866,2.40336785 C9.90664279,-0.801114998 19.120451,-0.801114998 24.8222528,2.40371069" id="Fill-42" fill="#6FEDFF"></path>
                            </g>
                        </g>
                    </g>
                </g>
            </g>
        </g>
    </g>
</svg>